<?xml version="1.0" encoding="utf-8"?>
<!-- Generator: Adobe Illustrator 16.0.0, SVG Export Plug-In . SVG Version: 6.00 Build 0)  -->
<!DOCTYPE svg PUBLIC "-//W3C//DTD SVG 1.1//EN" "http://www.w3.org/Graphics/SVG/1.1/DTD/svg11.dtd">
<svg version="1.1" xmlns="http://www.w3.org/2000/svg" xmlns:xlink="http://www.w3.org/1999/xlink" x="0px" y="0px"
	 width="265.45px" height="449.978px" viewBox="0 0 265.45 449.978" enable-background="new 0 0 265.45 449.978"
	 xml:space="preserve">
<g id="sketch">
</g>
<g id="icons">
	<path d="M242.663,27.37v397.947H24.317V27.37H242.663 M254.787,15.246H12.194v422.195h242.593V15.246L254.787,15.246z
		 M57.115,84.401c-35.946,42.183-30.891,105.513,11.29,141.458c42.182,35.947,105.513,30.897,141.461-11.285
		c35.945-42.181,30.89-105.514-11.292-141.46C156.394,37.168,93.062,42.22,57.115,84.401z M203.53,209.175
		c-32.963,38.683-91.047,43.32-129.729,10.354c-38.683-32.964-43.316-91.048-10.352-129.73
		c32.964-38.682,91.048-43.316,129.729-10.352C231.861,112.411,236.495,170.493,203.53,209.175z M106.46,74.702l-0.746,0.275
		l-1.262-3.412l0.747-0.277L106.46,74.702z M100.028,77.361l-0.72,0.343l-1.552-3.291l0.725-0.341L100.028,77.361z M93.856,80.569
		l-0.691,0.406l-1.826-3.146l0.686-0.4L93.856,80.569z M87.986,84.306l-0.648,0.456l-2.101-2.969l0.649-0.46L87.986,84.306z
		 M82.463,88.539l-0.604,0.513l-2.352-2.773l0.605-0.516L82.463,88.539z M77.331,93.233l-0.561,0.567l-2.584-2.562l0.562-0.565
		L77.331,93.233z M72.632,98.362l-0.515,0.615l-2.794-2.328l0.509-0.612L72.632,98.362z M68.39,103.883l-0.453,0.649l-2.989-2.068
		l0.452-0.656L68.39,103.883z M64.646,109.748l-0.395,0.688l-3.155-1.806l0.392-0.688L64.646,109.748z M61.432,115.916l-0.332,0.721
		l-3.304-1.522l0.334-0.721L61.432,115.916z M58.767,122.341l-0.27,0.747l-3.422-1.224l0.266-0.751L58.767,122.341z M56.671,128.978
		l-0.204,0.768l-3.517-0.929l0.205-0.767L56.671,128.978z M55.161,135.768l-0.137,0.784l-3.586-0.613l0.138-0.787L55.161,135.768z
		 M54.251,142.664l-0.07,0.795l-3.623-0.303l0.068-0.794L54.251,142.664z M53.948,149.613l-0.004,0.798l-3.637,0.016l-0.005-0.792
		L53.948,149.613z M54.241,156.567l0.075,0.792l-3.624,0.333l-0.072-0.791L54.241,156.567z M55.146,163.464l0.141,0.783
		l-3.578,0.651l-0.14-0.786L55.146,163.464z M56.649,170.257l0.204,0.772l-3.507,0.956l-0.21-0.77L56.649,170.257z M58.735,176.896
		l0.273,0.747l-3.407,1.257l-0.281-0.743L58.735,176.896z M61.397,183.323l0.338,0.718l-3.289,1.555l-0.342-0.72L61.397,183.323z
		 M64.604,189.496l0.402,0.688l-3.145,1.835l-0.4-0.688L64.604,189.496z M68.341,195.367l0.455,0.648l-2.968,2.104l-0.462-0.65
		L68.341,195.367z M72.577,200.885l0.509,0.61l-2.775,2.353l-0.517-0.605L72.577,200.885z M77.271,206.022l0.56,0.559l-2.561,2.586
		l-0.563-0.56L77.271,206.022z M82.399,210.722l0.607,0.511l-2.327,2.799l-0.607-0.509L82.399,210.722z M87.916,214.962l0.649,0.457
		l-2.071,2.982l-0.65-0.448L87.916,214.962z M93.779,218.704l0.689,0.396l-1.802,3.157l-0.689-0.396L93.779,218.704z
		 M99.946,221.919l0.724,0.335l-1.521,3.303l-0.726-0.332L99.946,221.919z M106.375,224.587l0.748,0.269l-1.228,3.424l-0.75-0.269
		L106.375,224.587z M113.013,226.678l0.76,0.207l-0.919,3.52l-0.771-0.204L113.013,226.678z M119.796,228.192l0.791,0.134
		l-0.614,3.587l-0.786-0.134L119.796,228.192z M126.7,229.102l0.791,0.069l-0.299,3.623l-0.794-0.065L126.7,229.102z
		 M133.652,229.408l0.79,0.001l0.02,3.639l-0.795-0.001L133.652,229.408z M140.6,229.108l0.79-0.068l0.337,3.623l-0.791,0.069
		L140.6,229.108z M147.495,228.208l0.785-0.139l0.652,3.575l-0.787,0.144L147.495,228.208z M154.29,226.703l0.769-0.207l0.957,3.51
		l-0.769,0.209L154.29,226.703z M160.927,224.614l0.748-0.271l1.26,3.412l-0.742,0.272L160.927,224.614z M167.355,221.954
		l0.722-0.333l1.557,3.288l-0.729,0.337L167.355,221.954z M173.53,218.744l0.689-0.396l1.831,3.14l-0.688,0.398L173.53,218.744z
		 M179.399,215.012l0.654-0.458l2.098,2.97l-0.651,0.463L179.399,215.012z M184.92,210.774l0.609-0.504l2.354,2.77l-0.609,0.518
		L184.92,210.774z M190.053,206.081l0.562-0.557l2.584,2.554l-0.56,0.565L190.053,206.081z M194.754,200.954l0.517-0.606l2.793,2.32
		l-0.509,0.614L194.754,200.954z M198.993,195.438l0.46-0.651l2.989,2.07l-0.458,0.657L198.993,195.438z M202.737,189.569
		l0.396-0.684l3.161,1.799l-0.396,0.692L202.737,189.569z M205.951,183.402l0.337-0.718l3.305,1.518l-0.338,0.724L205.951,183.402z
		 M208.618,176.978l0.271-0.745l3.425,1.224l-0.27,0.749L208.618,176.978z M210.712,170.344l0.203-0.769l3.521,0.922l-0.203,0.771
		L210.712,170.344z M212.22,163.55l0.141-0.778l3.588,0.608l-0.137,0.785L212.22,163.55z M213.132,156.657l0.076-0.794l3.619,0.297
		l-0.07,0.792L213.132,156.657z M213.442,149.703v-0.793l3.64-0.022v0.798L213.442,149.703z M213.142,142.754l-0.068-0.789
		l3.625-0.34l0.07,0.792L213.142,142.754z M212.237,135.857l-0.137-0.786l3.58-0.652l0.137,0.785L212.237,135.857z M210.737,129.063
		l-0.204-0.768l3.507-0.967l0.206,0.771L210.737,129.063z M208.648,122.425l-0.272-0.747l3.409-1.262l0.28,0.747L208.648,122.425z
		 M205.989,115.995l-0.336-0.719l3.287-1.557l0.34,0.722L205.989,115.995z M202.776,109.823l-0.391-0.691l3.138-1.833l0.397,0.688
		L202.776,109.823z M199.046,103.953l-0.454-0.652l2.966-2.101l0.463,0.649L199.046,103.953z M194.815,98.433l-0.514-0.61
		l2.774-2.354l0.515,0.606L194.815,98.433z M190.117,93.301l-0.56-0.565l2.555-2.584l0.561,0.561L190.117,93.301z M184.993,88.599
		l-0.611-0.515l2.32-2.795l0.612,0.508L184.993,88.599z M179.47,84.359l-0.646-0.459l2.068-2.991l0.652,0.454L179.47,84.359z
		 M173.61,80.616l-0.686-0.401l1.793-3.157l0.693,0.396L173.61,80.616z M167.435,77.401l-0.716-0.342l1.515-3.301l0.723,0.334
		L167.435,77.401z M161.009,74.734l-0.742-0.275l1.223-3.423l0.752,0.271L161.009,74.734z M154.377,72.641l-0.765-0.213l0.918-3.515
		l0.77,0.206L154.377,72.641z M147.587,71.129l-0.785-0.137l0.608-3.587l0.787,0.134L147.587,71.129z M140.687,70.219l-0.789-0.073
		l0.294-3.625l0.792,0.068L140.687,70.219z M133.737,69.909l-0.795-0.005l-0.02-3.635l0.795,0.002L133.737,69.909z M126.789,70.21
		l-0.794,0.064l-0.337-3.618l0.792-0.068L126.789,70.21z M119.893,71.114l-0.788,0.135l-0.652-3.575l0.782-0.141L119.893,71.114z
		 M113.097,72.613l-0.771,0.206l-0.961-3.507l0.771-0.206L113.097,72.613z M139.499,62.445c-0.024,0.501-0.117,0.967-0.284,1.401
		c-0.093,0.263-0.218,0.475-0.37,0.643c-0.149,0.16-0.32,0.29-0.506,0.381c-0.182,0.09-0.383,0.13-0.601,0.126
		c-0.239-0.016-0.455-0.087-0.647-0.223c-0.189-0.132-0.356-0.316-0.496-0.556c-0.1-0.174-0.185-0.405-0.252-0.688
		c-0.09-0.385-0.123-0.776-0.102-1.186c0.024-0.547,0.125-1.047,0.303-1.501c0.144-0.374,0.351-0.653,0.618-0.842
		c0.269-0.192,0.543-0.275,0.831-0.265c0.295,0.015,0.562,0.127,0.807,0.34c0.244,0.212,0.42,0.49,0.523,0.831
		C139.468,61.379,139.524,61.895,139.499,62.445z M138.354,62.381c0.041-0.884,0.061-1.402,0.057-1.543
		c-0.008-0.348-0.057-0.582-0.145-0.709c-0.056-0.081-0.156-0.129-0.295-0.134c-0.105-0.008-0.195,0.02-0.258,0.077
		c-0.097,0.085-0.167,0.233-0.211,0.448c-0.041,0.221-0.095,0.982-0.155,2.293c-0.035,0.719-0.036,1.199,0.002,1.446
		c0.027,0.178,0.079,0.294,0.144,0.357c0.065,0.065,0.158,0.1,0.271,0.103c0.125,0.011,0.223-0.028,0.285-0.103
		c0.11-0.133,0.18-0.347,0.209-0.636L138.354,62.381z M164.942,70.774l-2.776-1.06l0.027-0.075c1.239-0.689,2.014-1.177,2.33-1.46
		c0.313-0.276,0.536-0.588,0.665-0.921c0.09-0.244,0.093-0.479,0.005-0.696c-0.094-0.217-0.249-0.368-0.466-0.451
		c-0.357-0.134-0.698-0.063-1.033,0.22l-0.109-0.093c0.29-0.401,0.606-0.655,0.945-0.772c0.336-0.116,0.671-0.111,1.006,0.017
		c0.236,0.092,0.433,0.231,0.589,0.414c0.156,0.19,0.253,0.396,0.289,0.632c0.037,0.24,0.025,0.442-0.041,0.609
		c-0.115,0.312-0.319,0.59-0.614,0.845c-0.396,0.339-1.135,0.745-2.218,1.215l1.019,0.387c0.251,0.098,0.42,0.144,0.503,0.152
		c0.085,0.011,0.159-0.003,0.226-0.033c0.068-0.034,0.173-0.114,0.312-0.241l0.128,0.046L164.942,70.774z M169.812,70.091
		c-0.201,0.461-0.449,0.865-0.757,1.212c-0.183,0.214-0.374,0.368-0.571,0.472c-0.201,0.099-0.405,0.162-0.608,0.178
		c-0.209,0.021-0.413-0.008-0.608-0.097c-0.221-0.094-0.399-0.234-0.529-0.432c-0.129-0.193-0.219-0.422-0.268-0.696
		c-0.031-0.193-0.03-0.444,0.004-0.733c0.052-0.39,0.162-0.771,0.322-1.146c0.214-0.5,0.487-0.935,0.809-1.296
		c0.266-0.3,0.562-0.49,0.88-0.572c0.313-0.086,0.606-0.065,0.871,0.049c0.27,0.119,0.483,0.312,0.636,0.6
		c0.151,0.284,0.217,0.607,0.198,0.963C170.155,69.084,170.028,69.588,169.812,70.091z M168.763,69.632
		c0.348-0.815,0.547-1.293,0.598-1.428c0.111-0.33,0.151-0.567,0.115-0.716c-0.03-0.099-0.102-0.175-0.229-0.229
		c-0.102-0.04-0.193-0.05-0.273-0.019c-0.119,0.042-0.236,0.161-0.352,0.351c-0.119,0.188-0.437,0.887-0.963,2.092
		c-0.278,0.655-0.445,1.106-0.496,1.351c-0.037,0.176-0.033,0.304,0.004,0.391c0.041,0.079,0.111,0.144,0.219,0.188
		c0.118,0.049,0.217,0.052,0.303,0.003c0.154-0.087,0.292-0.263,0.42-0.522L168.763,69.632z M188.247,82.184l3.932-0.946
		l0.348,0.295l-2.094,2.488l0.352,0.298l-0.494,0.589l-0.355-0.294l-0.729,0.872l-0.784-0.667l0.726-0.864l-1.398-1.181
		L188.247,82.184z M188.524,82.416l1.123,0.944l1.283-1.527L188.524,82.416z M194.115,86.52c-0.34,0.37-0.708,0.666-1.11,0.893
		c-0.24,0.142-0.476,0.223-0.697,0.256c-0.219,0.029-0.433,0.02-0.636-0.032c-0.201-0.042-0.382-0.143-0.538-0.288
		c-0.18-0.163-0.296-0.359-0.357-0.581c-0.062-0.227-0.068-0.477-0.024-0.747c0.035-0.199,0.117-0.429,0.247-0.691
		c0.18-0.352,0.406-0.679,0.682-0.977c0.368-0.401,0.767-0.721,1.193-0.955c0.353-0.197,0.688-0.28,1.014-0.252
		c0.331,0.022,0.602,0.135,0.811,0.335c0.216,0.193,0.354,0.451,0.405,0.775c0.051,0.317,0.003,0.644-0.134,0.976
		C194.778,85.681,194.493,86.108,194.115,86.52z M193.278,85.734c0.603-0.65,0.943-1.036,1.04-1.148
		c0.214-0.273,0.325-0.48,0.341-0.636c0.005-0.102-0.037-0.199-0.142-0.295c-0.077-0.071-0.167-0.101-0.248-0.104
		c-0.128,0.004-0.277,0.072-0.447,0.211c-0.176,0.144-0.706,0.694-1.597,1.663c-0.484,0.523-0.79,0.895-0.919,1.108
		c-0.091,0.155-0.13,0.277-0.118,0.368c0.009,0.091,0.053,0.176,0.14,0.253c0.089,0.084,0.187,0.119,0.285,0.104
		c0.171-0.033,0.364-0.15,0.57-0.357L193.278,85.734z M213.01,107.082l-0.091,0.043c-0.32-0.331-0.627-0.575-0.916-0.723
		c-0.292-0.15-0.586-0.23-0.887-0.245c-0.302-0.01-0.638,0.039-1.018,0.149c0.122,0.058,0.206,0.115,0.263,0.167
		c0.121,0.114,0.222,0.245,0.305,0.387c0.185,0.329,0.22,0.672,0.099,1.025c-0.113,0.353-0.377,0.65-0.795,0.882
		c-0.286,0.161-0.587,0.249-0.896,0.266c-0.31,0.018-0.593-0.045-0.849-0.193c-0.254-0.146-0.451-0.342-0.588-0.59
		c-0.156-0.271-0.223-0.562-0.199-0.876c0.018-0.312,0.138-0.615,0.349-0.902c0.217-0.289,0.491-0.53,0.828-0.718
		c0.489-0.274,1.02-0.415,1.575-0.414c0.562-0.002,1.09,0.142,1.586,0.439C212.272,106.075,212.683,106.513,213.01,107.082z
		 M209.815,106.409c-0.309,0.152-0.53,0.264-0.668,0.343c-0.304,0.167-0.576,0.356-0.822,0.57c-0.246,0.216-0.4,0.405-0.457,0.567
		c-0.038,0.115-0.037,0.225,0.021,0.319c0.061,0.099,0.166,0.156,0.324,0.17c0.159,0.015,0.418-0.081,0.766-0.275
		c0.603-0.337,0.975-0.642,1.126-0.914c0.089-0.179,0.095-0.344,0.006-0.501C210.063,106.604,209.966,106.51,209.815,106.409z
		 M212.465,111.827c-0.448,0.229-0.903,0.376-1.356,0.443c-0.278,0.047-0.523,0.045-0.741-0.005
		c-0.22-0.053-0.409-0.138-0.586-0.252c-0.168-0.118-0.302-0.274-0.397-0.462c-0.108-0.219-0.153-0.444-0.127-0.675
		c0.02-0.231,0.101-0.464,0.241-0.703c0.101-0.175,0.261-0.363,0.474-0.562c0.287-0.261,0.62-0.485,0.979-0.671
		c0.491-0.244,0.979-0.405,1.457-0.472c0.398-0.059,0.744-0.016,1.044,0.124c0.292,0.141,0.505,0.341,0.636,0.595
		c0.131,0.265,0.17,0.554,0.101,0.868c-0.067,0.321-0.221,0.606-0.469,0.866C213.38,111.277,212.96,111.583,212.465,111.827z
		 M211.959,110.802c0.792-0.396,1.249-0.637,1.376-0.708c0.297-0.177,0.482-0.336,0.543-0.473c0.043-0.09,0.035-0.197-0.028-0.322
		c-0.046-0.101-0.114-0.159-0.192-0.189c-0.118-0.043-0.28-0.033-0.49,0.04c-0.213,0.071-0.908,0.397-2.081,0.987
		c-0.638,0.319-1.056,0.562-1.253,0.712c-0.14,0.115-0.222,0.214-0.243,0.302c-0.026,0.093-0.01,0.185,0.042,0.289
		c0.053,0.112,0.132,0.176,0.229,0.195c0.175,0.03,0.394-0.013,0.661-0.132L211.959,110.802z M220.494,137.096
		c-0.202,0.389-0.406,0.667-0.606,0.839c-0.202,0.174-0.446,0.282-0.734,0.324c-0.402,0.063-0.764-0.035-1.092-0.295
		c-0.32-0.263-0.525-0.653-0.605-1.177c-0.074-0.492-0.018-0.89,0.188-1.196c0.201-0.312,0.475-0.488,0.829-0.544
		c0.264-0.039,0.512,0.001,0.739,0.124c0.222,0.127,0.448,0.356,0.67,0.694c0.243-0.441,0.451-0.732,0.623-0.874
		c0.174-0.139,0.39-0.23,0.642-0.271c0.332-0.051,0.647,0.049,0.947,0.289c0.3,0.245,0.489,0.614,0.561,1.107
		c0.073,0.478,0.015,0.862-0.167,1.152c-0.188,0.296-0.432,0.459-0.75,0.509c-0.234,0.04-0.454-0.002-0.654-0.112
		C220.88,137.555,220.682,137.364,220.494,137.096z M219.749,136.171c-0.081-0.066-0.153-0.11-0.212-0.134
		c-0.097-0.036-0.227-0.062-0.397-0.073c-0.172-0.014-0.347-0.009-0.526,0.018c-0.229,0.034-0.418,0.094-0.565,0.179
		c-0.144,0.082-0.244,0.187-0.297,0.31c-0.051,0.115-0.069,0.235-0.051,0.35c0.029,0.176,0.116,0.315,0.267,0.421
		c0.148,0.103,0.339,0.138,0.567,0.1C219.01,137.268,219.415,136.88,219.749,136.171z M220.638,136.786
		c0.14,0.07,0.287,0.118,0.445,0.137c0.156,0.024,0.326,0.02,0.509-0.007c0.319-0.052,0.554-0.159,0.702-0.319
		c0.113-0.124,0.155-0.275,0.13-0.46c-0.027-0.165-0.104-0.295-0.244-0.388c-0.136-0.101-0.291-0.138-0.471-0.107
		c-0.18,0.026-0.355,0.122-0.524,0.281C221.006,136.079,220.827,136.368,220.638,136.786z M220.753,141.983
		c-0.504,0.056-0.98,0.037-1.43-0.061c-0.273-0.055-0.508-0.146-0.693-0.269c-0.184-0.121-0.337-0.268-0.459-0.437
		c-0.115-0.171-0.188-0.36-0.213-0.574c-0.021-0.24,0.016-0.469,0.115-0.676c0.104-0.206,0.266-0.403,0.475-0.574
		c0.159-0.13,0.371-0.249,0.64-0.357c0.366-0.148,0.752-0.243,1.15-0.285c0.552-0.061,1.064-0.041,1.534,0.068
		c0.389,0.081,0.701,0.241,0.929,0.479c0.229,0.231,0.358,0.493,0.39,0.782c0.031,0.29-0.039,0.571-0.211,0.847
		c-0.17,0.272-0.416,0.488-0.741,0.645C221.795,141.789,221.302,141.921,220.753,141.983z M220.637,140.84
		c0.878-0.091,1.389-0.152,1.532-0.173c0.34-0.065,0.568-0.153,0.678-0.259c0.074-0.07,0.102-0.176,0.088-0.313
		c-0.009-0.106-0.051-0.186-0.115-0.242c-0.097-0.081-0.256-0.125-0.481-0.134c-0.221-0.01-0.985,0.058-2.291,0.197
		c-0.712,0.074-1.183,0.151-1.422,0.228c-0.171,0.054-0.28,0.125-0.335,0.198c-0.049,0.075-0.069,0.172-0.057,0.283
		c0.014,0.122,0.064,0.213,0.149,0.267c0.146,0.085,0.366,0.124,0.659,0.107L220.637,140.84z M222.734,162.865l-4.091-0.585
		c-0.307-0.045-0.508-0.056-0.594-0.043c-0.092,0.019-0.172,0.064-0.236,0.141c-0.063,0.076-0.111,0.213-0.139,0.401l-0.016,0.116
		l-0.133-0.021l0.371-2.635l0.139,0.019l-0.02,0.135c-0.033,0.215-0.029,0.369,0.006,0.468c0.035,0.096,0.1,0.166,0.178,0.212
		c0.081,0.047,0.279,0.091,0.595,0.133l2.595,0.374c0.23,0.032,0.38,0.038,0.44,0.021c0.06-0.009,0.114-0.047,0.161-0.102
		c0.052-0.05,0.082-0.119,0.09-0.196c0.018-0.126,0.002-0.283-0.053-0.473l0.147-0.052l0.577,1.964L222.734,162.865z M219.265,167.4
		c-0.494-0.093-0.943-0.252-1.351-0.467c-0.246-0.136-0.437-0.288-0.58-0.462c-0.147-0.171-0.243-0.356-0.312-0.551
		c-0.066-0.196-0.08-0.398-0.041-0.607c0.045-0.245,0.145-0.447,0.308-0.617c0.157-0.171,0.367-0.311,0.622-0.414
		c0.188-0.077,0.424-0.13,0.714-0.156c0.394-0.033,0.791-0.018,1.188,0.061c0.536,0.101,1.019,0.272,1.446,0.506
		c0.349,0.193,0.594,0.442,0.744,0.729c0.156,0.292,0.203,0.578,0.149,0.864s-0.202,0.535-0.443,0.749
		c-0.248,0.214-0.544,0.349-0.899,0.404C220.317,167.519,219.808,167.501,219.265,167.4z M219.485,166.274
		c0.87,0.161,1.381,0.253,1.522,0.272c0.345,0.036,0.585,0.024,0.724-0.048c0.083-0.041,0.145-0.136,0.17-0.274
		c0.022-0.103,0.007-0.188-0.038-0.265c-0.069-0.107-0.208-0.193-0.422-0.266c-0.206-0.075-0.956-0.234-2.252-0.478
		c-0.7-0.131-1.174-0.196-1.424-0.19c-0.179-0.002-0.306,0.033-0.381,0.091c-0.065,0.057-0.114,0.142-0.137,0.253
		c-0.021,0.121,0.001,0.223,0.065,0.297c0.119,0.126,0.317,0.225,0.604,0.296L219.485,166.274z M218.38,171.222
		c-0.493-0.113-0.93-0.288-1.328-0.528c-0.243-0.146-0.429-0.304-0.564-0.481c-0.136-0.179-0.227-0.371-0.282-0.57
		c-0.058-0.197-0.059-0.402-0.009-0.611c0.057-0.237,0.164-0.434,0.331-0.597c0.163-0.164,0.379-0.292,0.637-0.386
		c0.188-0.068,0.432-0.109,0.723-0.128c0.392-0.015,0.79,0.026,1.184,0.114c0.534,0.129,1.011,0.318,1.421,0.575
		c0.341,0.21,0.58,0.464,0.716,0.763c0.138,0.299,0.171,0.588,0.106,0.869c-0.066,0.283-0.225,0.527-0.476,0.729
		c-0.258,0.201-0.563,0.322-0.919,0.362C219.425,171.389,218.917,171.35,218.38,171.222z M218.65,170.11
		c0.858,0.203,1.364,0.315,1.512,0.337c0.339,0.055,0.579,0.056,0.726-0.014c0.086-0.038,0.147-0.128,0.18-0.263
		c0.027-0.104,0.016-0.196-0.028-0.268c-0.065-0.11-0.196-0.211-0.402-0.287c-0.208-0.082-0.952-0.275-2.229-0.576
		c-0.698-0.163-1.172-0.25-1.419-0.256c-0.18-0.007-0.306,0.016-0.382,0.07c-0.074,0.059-0.12,0.137-0.152,0.252
		c-0.026,0.121-0.011,0.221,0.055,0.295c0.112,0.136,0.309,0.245,0.585,0.325L218.65,170.11z M212.589,192.962l-3.633-1.963
		c-0.28-0.144-0.461-0.227-0.548-0.244c-0.088-0.018-0.173,0-0.268,0.048c-0.085,0.051-0.179,0.161-0.268,0.331l-0.052,0.099
		l-0.125-0.064l1.266-2.34l0.123,0.065l-0.066,0.119c-0.101,0.188-0.152,0.333-0.153,0.441c-0.003,0.104,0.026,0.194,0.093,0.259
		c0.056,0.071,0.229,0.184,0.51,0.33l2.305,1.248c0.205,0.109,0.342,0.168,0.4,0.179c0.064,0.007,0.125-0.004,0.195-0.04
		c0.061-0.029,0.111-0.084,0.152-0.157c0.058-0.108,0.098-0.264,0.116-0.463l0.148,0.008l-0.138,2.038L212.589,192.962z
		 M205.798,194.384l1.53-2.552l0.069,0.043c0.465,1.339,0.807,2.186,1.028,2.547c0.218,0.365,0.486,0.635,0.793,0.816
		c0.226,0.134,0.448,0.178,0.681,0.127c0.231-0.051,0.408-0.171,0.525-0.372c0.199-0.332,0.186-0.685-0.033-1.061l0.113-0.094
		c0.339,0.36,0.541,0.715,0.594,1.069c0.053,0.35-0.008,0.679-0.191,0.986c-0.133,0.22-0.303,0.39-0.517,0.508
		c-0.21,0.121-0.435,0.179-0.673,0.172c-0.236-0.003-0.438-0.048-0.591-0.142c-0.284-0.173-0.521-0.424-0.717-0.756
		c-0.272-0.45-0.54-1.248-0.812-2.396l-0.562,0.935c-0.135,0.23-0.215,0.386-0.235,0.469c-0.025,0.08-0.03,0.153-0.007,0.226
		c0.016,0.074,0.078,0.189,0.186,0.352l-0.072,0.114L205.798,194.384z M205.614,199.294c-0.42-0.28-0.77-0.598-1.061-0.957
		c-0.173-0.218-0.299-0.433-0.36-0.648c-0.062-0.216-0.089-0.423-0.073-0.631c0.02-0.209,0.088-0.402,0.203-0.579
		c0.133-0.202,0.312-0.353,0.519-0.445c0.211-0.096,0.454-0.141,0.737-0.14c0.195-0.001,0.436,0.045,0.716,0.127
		c0.379,0.123,0.732,0.298,1.067,0.522c0.463,0.303,0.84,0.644,1.135,1.028c0.247,0.313,0.385,0.631,0.411,0.96
		c0.026,0.328-0.04,0.611-0.2,0.853c-0.159,0.243-0.396,0.416-0.702,0.515c-0.305,0.104-0.636,0.112-0.984,0.028
		C206.544,199.809,206.076,199.6,205.614,199.294z M206.253,198.34c0.741,0.488,1.171,0.767,1.298,0.841
		c0.304,0.171,0.531,0.249,0.683,0.236c0.104-0.007,0.188-0.067,0.27-0.185c0.059-0.093,0.08-0.176,0.062-0.263
		c-0.02-0.122-0.115-0.261-0.279-0.405c-0.166-0.152-0.799-0.587-1.893-1.31c-0.596-0.396-1.006-0.645-1.242-0.733
		c-0.166-0.069-0.29-0.089-0.382-0.059c-0.089,0.019-0.163,0.082-0.228,0.177c-0.065,0.101-0.085,0.203-0.055,0.3
		c0.062,0.161,0.206,0.332,0.442,0.504L206.253,198.34z M192.312,217.98l-2.711-3.113c-0.205-0.234-0.343-0.376-0.423-0.425
		c-0.079-0.044-0.162-0.063-0.27-0.042c-0.098,0.011-0.221,0.083-0.363,0.207l-0.092,0.077l-0.09-0.104l2.01-1.743l0.089,0.101
		l-0.104,0.09c-0.159,0.142-0.259,0.261-0.295,0.359c-0.04,0.098-0.041,0.187-0.006,0.275c0.031,0.084,0.153,0.251,0.36,0.49
		l1.72,1.975c0.153,0.18,0.256,0.279,0.312,0.31c0.055,0.029,0.117,0.04,0.195,0.03c0.072-0.009,0.133-0.039,0.195-0.09
		c0.093-0.086,0.189-0.222,0.27-0.394l0.141,0.056l-0.846,1.861L192.312,217.98z M188.951,216.578l0.147,4.038l-0.357,0.284
		l-2.02-2.548l-0.363,0.285l-0.482-0.604l0.367-0.287l-0.703-0.89l0.802-0.636l0.702,0.893l1.432-1.142L188.951,216.578z
		 M188.674,216.799l-1.149,0.915l1.236,1.562L188.674,216.799z M183.552,221.452c-0.295-0.409-0.511-0.834-0.652-1.27
		c-0.088-0.27-0.127-0.514-0.106-0.735c0.008-0.219,0.062-0.428,0.154-0.616c0.086-0.187,0.214-0.344,0.391-0.469
		c0.194-0.14,0.411-0.222,0.645-0.234c0.231-0.016,0.477,0.025,0.733,0.124c0.188,0.072,0.396,0.201,0.625,0.382
		c0.311,0.243,0.582,0.53,0.82,0.861c0.322,0.443,0.557,0.895,0.702,1.356c0.116,0.386,0.13,0.735,0.042,1.049
		c-0.093,0.317-0.254,0.558-0.49,0.726c-0.234,0.173-0.514,0.249-0.834,0.237c-0.331-0.01-0.637-0.121-0.936-0.322
		C184.241,222.261,183.881,221.896,183.552,221.452z M184.487,220.783c0.521,0.721,0.823,1.137,0.918,1.249
		c0.227,0.26,0.41,0.416,0.558,0.46c0.095,0.028,0.2,0.002,0.311-0.079c0.09-0.062,0.142-0.136,0.156-0.222
		c0.022-0.121-0.015-0.286-0.118-0.482s-0.541-0.827-1.31-1.893c-0.419-0.581-0.722-0.952-0.899-1.122
		c-0.135-0.122-0.248-0.19-0.339-0.194c-0.093-0.005-0.183,0.023-0.276,0.088c-0.102,0.075-0.152,0.161-0.156,0.264
		c-0.004,0.17,0.074,0.381,0.233,0.625L184.487,220.783z M164.507,234.227l-1.435-3.873c-0.105-0.291-0.188-0.475-0.245-0.544
		c-0.055-0.069-0.137-0.115-0.232-0.136c-0.103-0.024-0.242,0-0.424,0.07l-0.107,0.038l-0.046-0.133l2.492-0.922l0.05,0.126
		l-0.122,0.046c-0.207,0.078-0.345,0.156-0.412,0.234c-0.064,0.076-0.102,0.162-0.104,0.255c0.005,0.095,0.058,0.287,0.166,0.588
		l0.911,2.455c0.081,0.221,0.147,0.349,0.185,0.398c0.044,0.049,0.102,0.077,0.17,0.094c0.067,0.021,0.146,0.014,0.219-0.013
		c0.118-0.046,0.247-0.133,0.394-0.274l0.107,0.105l-1.446,1.439L164.507,234.227z M159.589,235.86l-0.031-0.1
		c0.396-0.241,0.695-0.49,0.903-0.745c0.205-0.254,0.344-0.523,0.42-0.816c0.073-0.294,0.095-0.63,0.063-1.021
		c-0.08,0.101-0.156,0.179-0.211,0.219c-0.141,0.096-0.291,0.167-0.451,0.219c-0.359,0.11-0.699,0.074-1.021-0.114
		c-0.323-0.188-0.557-0.508-0.695-0.96c-0.102-0.318-0.124-0.631-0.077-0.938c0.045-0.307,0.17-0.564,0.359-0.787
		c0.198-0.221,0.434-0.372,0.706-0.459c0.295-0.088,0.595-0.094,0.898-0.012c0.3,0.087,0.57,0.261,0.809,0.528
		c0.238,0.271,0.416,0.594,0.531,0.957c0.166,0.542,0.194,1.088,0.08,1.633c-0.117,0.546-0.369,1.033-0.76,1.458
		C160.722,235.349,160.213,235.662,159.589,235.86z M160.905,232.874c-0.086-0.331-0.154-0.571-0.198-0.729
		c-0.104-0.321-0.231-0.635-0.393-0.918c-0.155-0.287-0.313-0.473-0.457-0.564c-0.105-0.063-0.213-0.079-0.318-0.041
		c-0.114,0.032-0.188,0.126-0.236,0.277c-0.039,0.151-0.005,0.427,0.116,0.815c0.203,0.652,0.424,1.077,0.662,1.28
		c0.15,0.129,0.315,0.164,0.486,0.112C160.663,233.08,160.774,233.002,160.905,232.874z M155.093,234.391
		c-0.14-0.479-0.193-0.955-0.168-1.415c0.008-0.279,0.062-0.522,0.156-0.729c0.091-0.201,0.209-0.375,0.356-0.518
		c0.149-0.146,0.327-0.247,0.536-0.308c0.232-0.06,0.463-0.057,0.682,0.012c0.223,0.067,0.438,0.191,0.645,0.373
		c0.151,0.132,0.302,0.326,0.457,0.575c0.201,0.339,0.358,0.705,0.463,1.094c0.148,0.528,0.204,1.04,0.174,1.519
		c-0.021,0.402-0.128,0.735-0.322,0.998c-0.197,0.261-0.437,0.434-0.713,0.511c-0.281,0.074-0.572,0.05-0.869-0.077
		c-0.3-0.122-0.553-0.334-0.756-0.628C155.45,235.396,155.235,234.926,155.093,234.391z M156.198,234.1
		c0.236,0.85,0.375,1.348,0.424,1.483c0.113,0.331,0.232,0.542,0.357,0.63c0.08,0.062,0.189,0.074,0.32,0.039
		c0.102-0.026,0.183-0.082,0.22-0.154c0.069-0.108,0.091-0.271,0.062-0.495c-0.027-0.22-0.219-0.96-0.562-2.232
		c-0.188-0.688-0.339-1.146-0.452-1.366c-0.084-0.158-0.163-0.262-0.249-0.3c-0.084-0.04-0.179-0.043-0.287-0.014
		c-0.119,0.033-0.2,0.093-0.239,0.188c-0.064,0.163-0.062,0.385-0.005,0.671L156.198,234.1z M132.778,239.688l0.016-4.131
		c-0.001-0.31-0.012-0.509-0.041-0.593c-0.027-0.086-0.084-0.156-0.169-0.212c-0.087-0.054-0.226-0.087-0.419-0.081l-0.115-0.004
		l0.002-0.138l2.662,0.008l-0.002,0.138l-0.135,0.001c-0.215,0-0.37,0.022-0.463,0.074c-0.088,0.046-0.149,0.118-0.186,0.201
		c-0.033,0.089-0.049,0.29-0.051,0.609l-0.006,2.619c-0.004,0.233,0.011,0.378,0.029,0.436c0.025,0.062,0.064,0.109,0.119,0.153
		c0.064,0.04,0.135,0.062,0.215,0.062c0.125,0.001,0.279-0.037,0.461-0.118l0.072,0.132l-1.867,0.848L132.778,239.688z
		 M128.714,237.252c-0.341-0.282-0.576-0.533-0.706-0.763c-0.122-0.234-0.179-0.495-0.168-0.782
		c0.024-0.404,0.193-0.747,0.515-1.015c0.316-0.264,0.746-0.385,1.27-0.359c0.498,0.023,0.88,0.166,1.142,0.422
		c0.259,0.263,0.38,0.572,0.361,0.923c-0.016,0.271-0.104,0.504-0.274,0.698c-0.164,0.2-0.434,0.368-0.811,0.522
		c0.385,0.319,0.63,0.587,0.733,0.783c0.099,0.202,0.148,0.426,0.136,0.684c-0.02,0.338-0.176,0.627-0.473,0.87
		c-0.299,0.239-0.696,0.348-1.197,0.323c-0.482-0.02-0.848-0.148-1.095-0.393c-0.251-0.235-0.362-0.519-0.346-0.835
		c0.01-0.236,0.089-0.444,0.236-0.618C128.187,237.536,128.417,237.384,128.714,237.252z M128.987,237.45
		c-0.098,0.126-0.173,0.258-0.222,0.41c-0.057,0.153-0.084,0.321-0.092,0.503c-0.017,0.323,0.042,0.576,0.173,0.749
		c0.095,0.14,0.238,0.213,0.418,0.22c0.168,0.009,0.312-0.045,0.434-0.157c0.127-0.119,0.188-0.264,0.195-0.44
		c0.012-0.184-0.044-0.375-0.167-0.576C129.608,237.96,129.363,237.724,128.987,237.45z M129.773,236.704
		c0.079-0.062,0.134-0.125,0.165-0.18c0.062-0.085,0.11-0.205,0.158-0.375c0.049-0.163,0.076-0.334,0.082-0.517
		c0.018-0.233-0.004-0.429-0.057-0.593c-0.049-0.16-0.135-0.274-0.237-0.35c-0.107-0.076-0.219-0.118-0.337-0.122
		c-0.185-0.009-0.336,0.05-0.467,0.175c-0.131,0.128-0.199,0.31-0.213,0.536C128.846,235.761,129.145,236.237,129.773,236.704z
		 M123.886,236.524c0.047-0.506,0.158-0.965,0.343-1.389c0.112-0.26,0.241-0.463,0.402-0.622c0.16-0.157,0.33-0.279,0.521-0.36
		c0.191-0.083,0.395-0.115,0.605-0.1c0.245,0.025,0.457,0.109,0.64,0.252c0.185,0.141,0.341,0.332,0.472,0.579
		c0.088,0.177,0.164,0.411,0.219,0.698c0.072,0.388,0.089,0.781,0.047,1.188c-0.048,0.54-0.173,1.04-0.367,1.479
		c-0.164,0.37-0.385,0.64-0.658,0.817c-0.275,0.179-0.559,0.251-0.852,0.228c-0.285-0.028-0.545-0.155-0.783-0.379
		c-0.234-0.22-0.396-0.508-0.48-0.855C123.869,237.588,123.837,237.068,123.886,236.524z M125.026,236.637
		c-0.084,0.881-0.126,1.394-0.126,1.54c-0.013,0.347,0.025,0.584,0.104,0.717c0.057,0.082,0.156,0.134,0.293,0.147
		c0.104,0.009,0.192-0.01,0.263-0.068c0.103-0.079,0.174-0.225,0.228-0.441c0.048-0.213,0.139-0.975,0.266-2.283
		c0.062-0.714,0.086-1.19,0.06-1.438c-0.021-0.18-0.062-0.303-0.128-0.367c-0.061-0.068-0.15-0.106-0.261-0.117
		c-0.127-0.012-0.223,0.021-0.295,0.093c-0.118,0.134-0.196,0.339-0.238,0.627L125.026,236.637z M102.358,228.528l2.778,1.062
		l-0.029,0.075c-1.239,0.691-2.017,1.178-2.331,1.457c-0.316,0.283-0.539,0.591-0.666,0.926c-0.094,0.242-0.095,0.472-0.004,0.692
		c0.09,0.218,0.242,0.367,0.462,0.454c0.357,0.133,0.704,0.061,1.038-0.218l0.105,0.092c-0.293,0.396-0.608,0.655-0.942,0.77
		c-0.338,0.116-0.677,0.112-1.008-0.014c-0.241-0.094-0.436-0.23-0.592-0.418c-0.158-0.187-0.255-0.397-0.287-0.637
		c-0.038-0.234-0.026-0.436,0.04-0.607c0.117-0.309,0.32-0.59,0.614-0.842c0.394-0.341,1.136-0.741,2.223-1.213l-1.026-0.388
		c-0.25-0.097-0.42-0.147-0.499-0.154c-0.081-0.009-0.157,0.001-0.226,0.036c-0.068,0.029-0.173,0.109-0.316,0.244l-0.12-0.052
		L102.358,228.528z M97.493,229.208c0.197-0.463,0.448-0.864,0.752-1.213c0.188-0.21,0.377-0.369,0.575-0.467
		c0.205-0.103,0.405-0.158,0.608-0.182c0.207-0.02,0.412,0.009,0.607,0.097c0.221,0.099,0.399,0.241,0.532,0.433
		c0.125,0.19,0.215,0.421,0.263,0.697c0.035,0.194,0.032,0.442-0.002,0.732c-0.055,0.392-0.161,0.771-0.326,1.145
		c-0.213,0.505-0.486,0.937-0.808,1.295c-0.271,0.3-0.56,0.493-0.886,0.578c-0.312,0.081-0.603,0.06-0.867-0.05
		c-0.269-0.12-0.481-0.322-0.635-0.603c-0.152-0.283-0.219-0.607-0.194-0.966C97.147,230.213,97.272,229.715,97.493,229.208z
		 M98.543,229.671c-0.354,0.812-0.555,1.288-0.603,1.43c-0.115,0.322-0.153,0.561-0.118,0.711c0.028,0.095,0.103,0.175,0.233,0.228
		c0.099,0.044,0.188,0.047,0.266,0.021c0.12-0.043,0.241-0.16,0.355-0.351c0.118-0.188,0.437-0.886,0.957-2.092
		c0.289-0.656,0.453-1.105,0.504-1.35c0.039-0.179,0.035-0.308-0.006-0.388c-0.039-0.085-0.11-0.148-0.216-0.194
		c-0.112-0.05-0.218-0.05-0.305,0.003c-0.151,0.084-0.293,0.261-0.419,0.515L98.543,229.671z M93.953,227.499
		c0.218-0.454,0.488-0.844,0.812-1.178c0.192-0.201,0.387-0.353,0.595-0.439c0.2-0.093,0.407-0.147,0.611-0.155
		c0.21-0.008,0.407,0.03,0.601,0.126c0.219,0.105,0.387,0.257,0.512,0.451c0.121,0.198,0.198,0.436,0.234,0.71
		c0.025,0.199,0.01,0.445-0.037,0.731c-0.068,0.388-0.195,0.766-0.375,1.131c-0.237,0.492-0.524,0.911-0.867,1.255
		c-0.278,0.288-0.578,0.463-0.902,0.535c-0.32,0.069-0.611,0.038-0.871-0.084c-0.263-0.131-0.465-0.343-0.605-0.633
		c-0.141-0.292-0.193-0.614-0.152-0.97C93.56,228.489,93.711,227.996,93.953,227.499z M94.978,228.011
		c-0.387,0.796-0.609,1.258-0.661,1.395c-0.128,0.32-0.181,0.561-0.148,0.711c0.022,0.097,0.095,0.178,0.223,0.237
		c0.095,0.046,0.183,0.059,0.267,0.032c0.117-0.043,0.24-0.148,0.367-0.337c0.124-0.178,0.478-0.865,1.053-2.041
		c0.312-0.647,0.504-1.091,0.561-1.329c0.044-0.172,0.049-0.302,0.011-0.386c-0.032-0.087-0.104-0.153-0.209-0.206
		c-0.109-0.052-0.212-0.056-0.299-0.013c-0.158,0.08-0.304,0.248-0.445,0.501L94.978,228.011z M76.582,212.457l2.232,1.965
		l-0.053,0.061c-1.404,0.214-2.304,0.395-2.695,0.547c-0.396,0.151-0.71,0.367-0.947,0.633c-0.173,0.194-0.257,0.414-0.247,0.648
		c0.01,0.235,0.096,0.433,0.273,0.583c0.285,0.256,0.634,0.31,1.045,0.161l0.071,0.129c-0.412,0.264-0.801,0.397-1.157,0.39
		c-0.354-0.012-0.666-0.138-0.938-0.373c-0.188-0.166-0.324-0.366-0.404-0.595c-0.082-0.229-0.101-0.459-0.047-0.695
		c0.044-0.233,0.132-0.419,0.249-0.557c0.222-0.247,0.506-0.435,0.875-0.571c0.488-0.177,1.324-0.298,2.499-0.355l-0.818-0.723
		c-0.201-0.174-0.339-0.286-0.418-0.319c-0.069-0.036-0.148-0.053-0.225-0.051c-0.071,0.008-0.193,0.046-0.372,0.121l-0.101-0.088
		L76.582,212.457z M73.818,209.835l2.142,2.06l-0.061,0.057c-1.409,0.149-2.314,0.294-2.714,0.425
		c-0.405,0.137-0.726,0.333-0.972,0.59c-0.185,0.189-0.273,0.402-0.279,0.637c-0.002,0.232,0.076,0.437,0.248,0.597
		c0.271,0.266,0.621,0.338,1.04,0.206l0.06,0.132c-0.422,0.249-0.814,0.36-1.171,0.337c-0.356-0.029-0.663-0.16-0.917-0.414
		c-0.184-0.178-0.312-0.382-0.381-0.613c-0.068-0.232-0.072-0.466-0.018-0.696c0.06-0.233,0.149-0.409,0.279-0.545
		c0.226-0.238,0.522-0.412,0.897-0.531c0.496-0.158,1.333-0.236,2.515-0.244l-0.786-0.755c-0.194-0.187-0.327-0.3-0.4-0.342
		c-0.077-0.036-0.148-0.057-0.223-0.055c-0.08,0.004-0.201,0.035-0.384,0.103l-0.095-0.097L73.818,209.835z M69.08,208.554
		c0.371-0.351,0.761-0.623,1.17-0.82c0.258-0.122,0.497-0.192,0.715-0.203c0.226-0.018,0.433,0.01,0.636,0.07
		c0.194,0.064,0.367,0.169,0.518,0.321c0.162,0.179,0.269,0.384,0.314,0.611c0.048,0.225,0.037,0.478-0.025,0.744
		c-0.048,0.195-0.146,0.422-0.295,0.674c-0.199,0.336-0.449,0.649-0.746,0.924c-0.396,0.379-0.812,0.669-1.256,0.876
		c-0.361,0.168-0.705,0.23-1.03,0.181c-0.325-0.052-0.589-0.177-0.781-0.386c-0.2-0.215-0.32-0.482-0.349-0.805
		c-0.028-0.324,0.035-0.645,0.199-0.96C68.371,209.34,68.681,208.93,69.08,208.554z M69.865,209.388
		c-0.641,0.609-1.01,0.968-1.11,1.076c-0.231,0.253-0.363,0.46-0.385,0.609c-0.017,0.098,0.026,0.203,0.121,0.303
		c0.074,0.079,0.152,0.119,0.237,0.124c0.122,0.007,0.283-0.055,0.467-0.183c0.179-0.127,0.746-0.641,1.703-1.548
		c0.515-0.493,0.849-0.839,0.993-1.044c0.102-0.148,0.145-0.266,0.144-0.359c-0.003-0.091-0.047-0.179-0.125-0.265
		c-0.086-0.087-0.177-0.129-0.28-0.119c-0.172,0.021-0.368,0.125-0.589,0.314L69.865,209.388z M59.948,191.706l1.51,2.56
		l-0.072,0.038c-1.396-0.232-2.31-0.337-2.729-0.315c-0.419,0.022-0.784,0.122-1.093,0.306c-0.223,0.131-0.375,0.311-0.439,0.537
		c-0.068,0.228-0.041,0.444,0.079,0.643c0.19,0.327,0.508,0.486,0.946,0.474l0.026,0.148c-0.48,0.126-0.89,0.129-1.223,0.006
		c-0.337-0.118-0.592-0.335-0.775-0.64c-0.13-0.22-0.197-0.455-0.203-0.693c0.001-0.246,0.051-0.469,0.174-0.673
		c0.116-0.212,0.258-0.362,0.411-0.454c0.283-0.167,0.62-0.259,1.006-0.271c0.528-0.021,1.358,0.129,2.49,0.44l-0.554-0.939
		c-0.134-0.234-0.235-0.376-0.294-0.434c-0.058-0.06-0.125-0.1-0.195-0.116c-0.076-0.02-0.209-0.021-0.398-0.004L58.55,192.2
		L59.948,191.706z M57.845,191.87l-3.994-0.604l-0.211-0.398l2.875-1.524l-0.217-0.408l0.681-0.358l0.22,0.404l0.998-0.527
		l0.48,0.908l-1,0.526l0.855,1.618L57.845,191.87z M57.679,191.549l-0.682-1.299l-1.766,0.935L57.679,191.549z M54.038,185.659
		c0.459-0.22,0.91-0.354,1.368-0.415c0.278-0.04,0.526-0.029,0.74,0.03c0.219,0.053,0.409,0.141,0.577,0.265
		c0.172,0.118,0.301,0.275,0.391,0.467c0.104,0.222,0.146,0.444,0.114,0.677c-0.028,0.232-0.114,0.462-0.258,0.7
		c-0.106,0.171-0.268,0.353-0.489,0.548c-0.295,0.258-0.631,0.478-0.994,0.649c-0.495,0.233-0.983,0.378-1.462,0.437
		c-0.403,0.049-0.746-0.002-1.042-0.147c-0.292-0.147-0.5-0.354-0.623-0.612c-0.125-0.267-0.155-0.558-0.082-0.87
		c0.074-0.316,0.236-0.604,0.493-0.85C53.117,186.185,53.542,185.895,54.038,185.659z M54.521,186.695
		c-0.8,0.38-1.263,0.606-1.387,0.675c-0.304,0.171-0.492,0.327-0.56,0.462c-0.046,0.096-0.039,0.2,0.023,0.324
		c0.044,0.1,0.107,0.159,0.185,0.194c0.124,0.042,0.284,0.035,0.499-0.031c0.211-0.062,0.913-0.378,2.101-0.938
		c0.646-0.308,1.07-0.533,1.266-0.684c0.145-0.106,0.229-0.206,0.254-0.298c0.021-0.089,0.013-0.184-0.036-0.287
		c-0.053-0.11-0.129-0.18-0.229-0.2c-0.172-0.037-0.391,0.002-0.657,0.113L54.521,186.695z M50.565,166.808l0.643,2.898
		l-0.078,0.021c-1.26-0.653-2.089-1.037-2.495-1.145c-0.411-0.107-0.791-0.122-1.138-0.047c-0.255,0.056-0.448,0.181-0.58,0.377
		c-0.137,0.196-0.18,0.408-0.13,0.637c0.086,0.373,0.336,0.623,0.757,0.742l-0.018,0.147c-0.496-0.027-0.883-0.151-1.166-0.365
		c-0.283-0.22-0.464-0.501-0.54-0.852c-0.058-0.249-0.048-0.49,0.02-0.721c0.073-0.232,0.197-0.433,0.372-0.592
		c0.176-0.162,0.354-0.261,0.53-0.3c0.325-0.074,0.669-0.057,1.042,0.051c0.504,0.143,1.247,0.537,2.236,1.182l-0.24-1.064
		c-0.06-0.261-0.107-0.427-0.148-0.501c-0.037-0.073-0.088-0.129-0.15-0.17c-0.068-0.037-0.191-0.082-0.377-0.128l-0.025-0.131
		L50.565,166.808z M44.724,163.53l0.104-0.02c0.188,0.422,0.396,0.757,0.621,0.99c0.223,0.235,0.477,0.409,0.757,0.521
		c0.281,0.112,0.614,0.179,1.005,0.197c-0.09-0.096-0.156-0.176-0.187-0.247c-0.081-0.147-0.136-0.306-0.16-0.464
		c-0.066-0.371,0.012-0.704,0.239-1.004c0.228-0.299,0.573-0.486,1.038-0.563c0.33-0.06,0.644-0.046,0.941,0.04
		s0.539,0.241,0.732,0.464c0.196,0.219,0.315,0.47,0.365,0.75c0.057,0.306,0.017,0.605-0.1,0.893
		c-0.126,0.288-0.329,0.536-0.632,0.736c-0.297,0.203-0.632,0.338-1.014,0.404c-0.558,0.097-1.102,0.055-1.629-0.128
		c-0.525-0.184-0.979-0.494-1.35-0.938S44.839,164.178,44.724,163.53z M47.517,165.214c0.339-0.04,0.584-0.075,0.74-0.099
		c0.343-0.064,0.662-0.153,0.965-0.272c0.306-0.122,0.51-0.247,0.617-0.385c0.078-0.094,0.104-0.195,0.086-0.307
		c-0.019-0.114-0.102-0.205-0.251-0.27c-0.144-0.064-0.418-0.061-0.819,0.012c-0.674,0.117-1.127,0.284-1.352,0.487
		c-0.148,0.138-0.205,0.292-0.178,0.474C47.347,164.947,47.409,165.071,47.517,165.214z M46.798,159.243
		c0.504-0.072,0.977-0.061,1.43,0.024c0.277,0.05,0.508,0.136,0.698,0.253c0.188,0.118,0.341,0.266,0.468,0.428
		c0.123,0.169,0.198,0.358,0.224,0.569c0.032,0.239,0.001,0.468-0.097,0.677c-0.102,0.213-0.253,0.406-0.462,0.587
		c-0.154,0.13-0.366,0.255-0.634,0.372c-0.361,0.15-0.74,0.259-1.145,0.31c-0.545,0.072-1.056,0.059-1.531-0.031
		c-0.392-0.077-0.704-0.231-0.942-0.458c-0.233-0.231-0.37-0.488-0.403-0.777c-0.041-0.289,0.023-0.575,0.193-0.855
		c0.164-0.278,0.402-0.495,0.729-0.658C45.763,159.457,46.254,159.309,46.798,159.243z M46.941,160.376
		c-0.881,0.117-1.389,0.188-1.528,0.216c-0.346,0.068-0.564,0.158-0.678,0.268c-0.068,0.073-0.098,0.179-0.077,0.311
		c0.013,0.114,0.052,0.188,0.124,0.242c0.097,0.082,0.256,0.122,0.477,0.131c0.224,0.001,0.988-0.084,2.287-0.254
		c0.711-0.093,1.182-0.176,1.417-0.258c0.171-0.06,0.282-0.128,0.328-0.202c0.053-0.078,0.072-0.173,0.056-0.287
		c-0.019-0.123-0.064-0.212-0.158-0.264c-0.147-0.082-0.369-0.115-0.656-0.091L46.941,160.376z M49.839,136.458l-0.424,2.945
		l-0.082-0.011c-0.943-1.058-1.586-1.713-1.93-1.954c-0.347-0.248-0.698-0.396-1.047-0.45c-0.259-0.034-0.487,0.019-0.68,0.151
		c-0.19,0.133-0.308,0.317-0.339,0.548c-0.054,0.38,0.092,0.702,0.441,0.964l-0.071,0.129c-0.45-0.201-0.771-0.446-0.957-0.753
		c-0.186-0.304-0.258-0.634-0.207-0.983c0.039-0.257,0.129-0.479,0.277-0.672c0.146-0.19,0.334-0.334,0.556-0.421
		c0.224-0.09,0.425-0.119,0.604-0.095c0.325,0.049,0.643,0.189,0.952,0.419c0.422,0.312,0.979,0.945,1.675,1.896l0.153-1.079
		c0.039-0.269,0.053-0.443,0.042-0.523c-0.011-0.082-0.04-0.155-0.088-0.21c-0.041-0.062-0.144-0.147-0.303-0.254l0.021-0.135
		L49.839,136.458z M47.614,132.721c0.32-0.305,0.607-0.498,0.85-0.592c0.248-0.094,0.512-0.113,0.801-0.061
		c0.402,0.076,0.712,0.29,0.931,0.645c0.218,0.355,0.278,0.79,0.18,1.307c-0.091,0.49-0.283,0.847-0.573,1.067
		c-0.296,0.228-0.615,0.305-0.966,0.238c-0.265-0.051-0.485-0.172-0.654-0.365c-0.169-0.194-0.302-0.486-0.399-0.88
		c-0.378,0.338-0.67,0.542-0.879,0.617c-0.215,0.075-0.447,0.09-0.695,0.039c-0.329-0.062-0.6-0.253-0.795-0.587
		c-0.201-0.33-0.258-0.74-0.162-1.23c0.091-0.475,0.271-0.814,0.542-1.03c0.271-0.213,0.562-0.287,0.873-0.225
		c0.236,0.041,0.431,0.151,0.587,0.319C47.401,132.156,47.524,132.4,47.614,132.721z M47.374,132.96
		c-0.103-0.111-0.23-0.204-0.375-0.275c-0.141-0.075-0.303-0.127-0.481-0.162c-0.319-0.06-0.573-0.038-0.768,0.069
		c-0.149,0.074-0.241,0.206-0.273,0.386c-0.032,0.162-0.001,0.312,0.098,0.448c0.099,0.14,0.231,0.226,0.407,0.255
		c0.178,0.034,0.374,0.009,0.594-0.084C46.788,133.503,47.058,133.292,47.374,132.96z M48.009,133.841
		c0.053,0.09,0.106,0.15,0.154,0.191c0.077,0.065,0.191,0.137,0.348,0.207c0.156,0.066,0.325,0.122,0.503,0.155
		c0.226,0.048,0.425,0.052,0.591,0.021c0.165-0.027,0.298-0.095,0.384-0.188c0.089-0.094,0.144-0.198,0.166-0.312
		c0.032-0.178-0.003-0.343-0.111-0.489c-0.11-0.144-0.271-0.243-0.5-0.285C49.069,133.053,48.559,133.282,48.009,133.841z
		 M48.995,128.038c0.491,0.117,0.934,0.294,1.325,0.533c0.243,0.143,0.431,0.307,0.566,0.485c0.134,0.179,0.23,0.364,0.284,0.564
		c0.056,0.201,0.057,0.404,0.008,0.612c-0.055,0.235-0.164,0.438-0.332,0.597c-0.166,0.165-0.376,0.291-0.637,0.387
		c-0.188,0.066-0.432,0.109-0.723,0.124c-0.395,0.018-0.789-0.024-1.185-0.116c-0.532-0.125-1.003-0.316-1.419-0.574
		c-0.34-0.21-0.578-0.46-0.713-0.762c-0.141-0.296-0.178-0.587-0.11-0.868c0.07-0.288,0.227-0.529,0.482-0.729
		c0.251-0.203,0.56-0.326,0.915-0.362C47.946,127.874,48.463,127.909,48.995,128.038z M48.724,129.155
		c-0.859-0.205-1.361-0.32-1.508-0.341c-0.344-0.059-0.582-0.053-0.723,0.011c-0.091,0.041-0.15,0.128-0.185,0.267
		c-0.028,0.105-0.017,0.196,0.029,0.266c0.063,0.11,0.2,0.204,0.407,0.287c0.204,0.084,0.949,0.272,2.223,0.578
		c0.701,0.165,1.172,0.251,1.414,0.264c0.188,0.002,0.312-0.026,0.386-0.077c0.075-0.059,0.123-0.139,0.148-0.247
		c0.03-0.121,0.013-0.22-0.048-0.307c-0.113-0.129-0.307-0.236-0.585-0.317L48.724,129.155z M56.665,108.369l-0.113-0.062
		c0.064-0.289,0.091-0.498,0.082-0.631c-0.008-0.128-0.06-0.264-0.147-0.402c-0.093-0.141-0.202-0.247-0.33-0.315
		c-0.181-0.102-0.376-0.116-0.575-0.058c-0.201,0.06-0.355,0.188-0.464,0.389c-0.166,0.301-0.151,0.649,0.057,1.037l-0.107,0.099
		c-0.28-0.354-0.442-0.707-0.488-1.055c-0.052-0.343,0.008-0.664,0.172-0.967c0.169-0.309,0.402-0.508,0.698-0.604
		c0.295-0.095,0.57-0.078,0.819,0.059c0.163,0.091,0.291,0.226,0.396,0.398c0.103,0.175,0.155,0.393,0.162,0.654
		c0.264-0.186,0.522-0.298,0.781-0.332c0.255-0.035,0.52,0.026,0.791,0.178c0.464,0.25,0.764,0.634,0.903,1.147
		c0.141,0.511,0.061,1.047-0.245,1.607c-0.21,0.376-0.42,0.616-0.64,0.718c-0.159,0.081-0.3,0.079-0.44,0.003
		c-0.099-0.055-0.164-0.137-0.195-0.245c-0.035-0.109-0.021-0.218,0.029-0.309c0.039-0.071,0.092-0.132,0.154-0.177
		c0.037-0.028,0.202-0.096,0.492-0.214c0.291-0.118,0.484-0.273,0.59-0.457c0.086-0.159,0.098-0.334,0.031-0.518
		c-0.062-0.186-0.194-0.332-0.389-0.439c-0.301-0.163-0.631-0.209-0.996-0.139C57.322,107.806,56.985,108.015,56.665,108.369z
		 M59.858,102.892c0.43,0.264,0.797,0.567,1.098,0.914c0.186,0.211,0.312,0.424,0.385,0.634c0.076,0.212,0.104,0.423,0.095,0.628
		c-0.007,0.209-0.069,0.402-0.176,0.582c-0.126,0.209-0.295,0.367-0.505,0.469c-0.205,0.105-0.447,0.159-0.725,0.173
		c-0.197,0.003-0.438-0.033-0.722-0.109c-0.385-0.103-0.745-0.262-1.094-0.476c-0.464-0.287-0.858-0.61-1.17-0.979
		c-0.263-0.303-0.41-0.622-0.454-0.944c-0.037-0.326,0.019-0.615,0.171-0.86c0.154-0.252,0.379-0.433,0.686-0.546
		c0.302-0.114,0.626-0.134,0.979-0.063C58.907,102.415,59.387,102.604,59.858,102.892z M59.253,103.872
		c-0.753-0.462-1.197-0.725-1.33-0.793c-0.307-0.157-0.54-0.227-0.688-0.211c-0.101,0.013-0.188,0.081-0.261,0.199
		c-0.052,0.088-0.072,0.178-0.052,0.256c0.025,0.13,0.125,0.263,0.293,0.402c0.173,0.142,0.819,0.552,1.941,1.236
		c0.613,0.373,1.034,0.6,1.27,0.683c0.173,0.06,0.298,0.076,0.387,0.045c0.088-0.029,0.161-0.094,0.218-0.19
		c0.067-0.104,0.081-0.204,0.049-0.302c-0.067-0.159-0.225-0.322-0.459-0.486L59.253,103.872z M62.036,99.612
		c0.415,0.284,0.77,0.605,1.056,0.966c0.175,0.222,0.294,0.435,0.353,0.647c0.065,0.215,0.092,0.428,0.071,0.635
		c-0.015,0.207-0.085,0.397-0.204,0.576c-0.136,0.201-0.311,0.349-0.521,0.441c-0.215,0.095-0.456,0.141-0.732,0.138
		c-0.205-0.002-0.441-0.048-0.719-0.137c-0.378-0.121-0.73-0.296-1.072-0.524c-0.454-0.303-0.831-0.648-1.123-1.034
		c-0.252-0.312-0.385-0.634-0.41-0.963c-0.023-0.332,0.045-0.612,0.205-0.851c0.165-0.244,0.401-0.414,0.71-0.518
		c0.31-0.098,0.63-0.104,0.981-0.016C61.108,99.093,61.573,99.311,62.036,99.612z M61.387,100.565
		c-0.731-0.493-1.161-0.775-1.29-0.851c-0.303-0.171-0.525-0.253-0.682-0.24c-0.101,0.008-0.189,0.068-0.271,0.185
		c-0.055,0.088-0.074,0.172-0.062,0.262c0.023,0.12,0.114,0.26,0.279,0.406c0.164,0.15,0.792,0.591,1.887,1.322
		c0.593,0.397,1.005,0.646,1.234,0.738c0.163,0.068,0.294,0.092,0.383,0.066c0.089-0.026,0.165-0.084,0.229-0.181
		c0.071-0.103,0.084-0.199,0.058-0.301c-0.06-0.162-0.2-0.332-0.438-0.505L61.387,100.565z M76.119,83.886l-0.086-0.102
		c0.166-0.247,0.261-0.433,0.299-0.556c0.036-0.127,0.041-0.271,0.001-0.429c-0.033-0.166-0.095-0.305-0.195-0.413
		c-0.131-0.157-0.307-0.244-0.512-0.258c-0.216-0.015-0.406,0.051-0.572,0.196c-0.264,0.225-0.369,0.564-0.314,0.995l-0.135,0.056
		c-0.141-0.432-0.166-0.817-0.092-1.155c0.078-0.343,0.248-0.628,0.506-0.848c0.264-0.229,0.557-0.338,0.867-0.322
		c0.312,0.012,0.558,0.128,0.743,0.347c0.125,0.139,0.198,0.314,0.233,0.513c0.031,0.197,0.005,0.424-0.081,0.666
		c0.313-0.08,0.595-0.09,0.847-0.031c0.248,0.055,0.479,0.201,0.686,0.437c0.338,0.406,0.487,0.866,0.439,1.395
		c-0.05,0.524-0.318,1-0.802,1.418c-0.326,0.279-0.604,0.427-0.848,0.448c-0.171,0.018-0.306-0.035-0.412-0.153
		c-0.073-0.087-0.104-0.188-0.096-0.299c0.009-0.115,0.052-0.209,0.136-0.277c0.063-0.055,0.131-0.089,0.207-0.113
		c0.043-0.007,0.223-0.02,0.534-0.025c0.309-0.01,0.546-0.082,0.709-0.221c0.14-0.12,0.21-0.277,0.218-0.475
		c0.003-0.194-0.066-0.377-0.213-0.545c-0.222-0.259-0.514-0.422-0.883-0.484C76.935,83.589,76.539,83.667,76.119,83.886z
		 M82.284,82.11l-2.34,1.834l-0.045-0.065c0.048-1.42,0.03-2.329-0.048-2.747c-0.081-0.416-0.228-0.767-0.452-1.046
		c-0.159-0.206-0.352-0.324-0.586-0.362c-0.232-0.038-0.441,0.016-0.629,0.164c-0.3,0.232-0.414,0.568-0.346,1l-0.137,0.046
		c-0.193-0.453-0.246-0.858-0.174-1.21c0.072-0.345,0.252-0.633,0.533-0.854c0.202-0.16,0.427-0.256,0.664-0.293
		c0.236-0.037,0.467-0.009,0.692,0.082c0.218,0.089,0.382,0.206,0.501,0.348c0.198,0.263,0.337,0.581,0.396,0.963
		c0.092,0.514,0.053,1.359-0.102,2.525l0.859-0.674c0.213-0.167,0.343-0.283,0.391-0.35c0.051-0.068,0.08-0.137,0.087-0.212
		c0.009-0.074-0.007-0.206-0.046-0.392l0.103-0.084L82.284,82.11z M84.22,77.592c0.293,0.408,0.514,0.833,0.646,1.274
		c0.089,0.265,0.123,0.511,0.11,0.729c-0.022,0.227-0.072,0.43-0.163,0.619c-0.085,0.185-0.223,0.341-0.395,0.463
		c-0.197,0.144-0.412,0.218-0.641,0.232c-0.236,0.014-0.481-0.032-0.736-0.133c-0.188-0.069-0.394-0.202-0.629-0.38
		c-0.301-0.248-0.575-0.539-0.811-0.865c-0.319-0.451-0.549-0.902-0.692-1.364c-0.116-0.384-0.13-0.731-0.038-1.048
		c0.096-0.317,0.26-0.556,0.493-0.721c0.24-0.174,0.521-0.25,0.845-0.236c0.322,0.016,0.631,0.126,0.926,0.331
		C83.536,76.777,83.901,77.141,84.22,77.592z M83.284,78.252c-0.515-0.723-0.819-1.136-0.913-1.248
		c-0.218-0.269-0.405-0.421-0.552-0.47c-0.094-0.027-0.201-0.004-0.312,0.078c-0.093,0.062-0.141,0.137-0.154,0.218
		c-0.025,0.126,0.011,0.287,0.113,0.485c0.102,0.198,0.534,0.833,1.3,1.898c0.412,0.587,0.714,0.961,0.893,1.128
		c0.133,0.128,0.242,0.188,0.339,0.196c0.09,0.01,0.182-0.018,0.277-0.088c0.099-0.073,0.152-0.159,0.152-0.258
		c0.008-0.173-0.072-0.384-0.228-0.628L83.284,78.252z M102.966,67.85l-0.046-0.12c0.243-0.175,0.397-0.312,0.473-0.417
		c0.083-0.107,0.135-0.237,0.159-0.401c0.025-0.168,0.015-0.316-0.043-0.457c-0.065-0.193-0.197-0.336-0.39-0.421
		c-0.188-0.087-0.393-0.093-0.604-0.014c-0.325,0.114-0.543,0.39-0.644,0.819l-0.145-0.001c0.021-0.447,0.134-0.819,0.324-1.11
		c0.19-0.293,0.449-0.5,0.769-0.616c0.329-0.119,0.638-0.118,0.925,0.006c0.285,0.122,0.479,0.316,0.576,0.585
		c0.066,0.175,0.076,0.365,0.037,0.562c-0.041,0.197-0.148,0.401-0.314,0.6c0.32,0.033,0.594,0.119,0.808,0.264
		c0.216,0.142,0.372,0.359,0.482,0.652c0.178,0.495,0.157,0.98-0.076,1.461c-0.236,0.477-0.649,0.826-1.251,1.044
		c-0.404,0.146-0.717,0.187-0.954,0.121c-0.164-0.044-0.281-0.14-0.328-0.29c-0.043-0.106-0.035-0.212,0.015-0.313
		c0.047-0.104,0.123-0.176,0.224-0.212c0.075-0.029,0.155-0.038,0.235-0.029c0.045,0.002,0.213,0.059,0.508,0.161
		c0.297,0.103,0.542,0.118,0.74,0.048c0.17-0.067,0.297-0.19,0.371-0.372c0.073-0.179,0.073-0.372-0.003-0.588
		c-0.12-0.315-0.34-0.569-0.661-0.763C103.835,67.862,103.437,67.796,102.966,67.85z M105.976,67.428l1.32-3.82l0.432-0.134
		l0.971,3.109l0.44-0.14l0.228,0.735l-0.441,0.142l0.338,1.078l-0.975,0.305l-0.337-1.081l-1.752,0.547L105.976,67.428z
		 M106.317,67.319l1.401-0.433l-0.595-1.903L106.317,67.319z M112.759,64.811c0.131,0.486,0.187,0.959,0.162,1.42
		c-0.013,0.28-0.065,0.521-0.157,0.725c-0.095,0.202-0.22,0.373-0.37,0.521c-0.146,0.141-0.322,0.243-0.532,0.297
		c-0.231,0.062-0.458,0.062-0.68-0.01c-0.227-0.07-0.438-0.194-0.646-0.381c-0.15-0.133-0.3-0.325-0.449-0.577
		c-0.202-0.341-0.354-0.706-0.46-1.095c-0.141-0.532-0.196-1.038-0.169-1.521c0.025-0.402,0.139-0.732,0.336-0.994
		c0.196-0.262,0.436-0.431,0.711-0.504c0.284-0.077,0.577-0.051,0.873,0.076c0.293,0.129,0.545,0.339,0.751,0.636
		C112.405,63.809,112.616,64.279,112.759,64.811z M111.646,65.098c-0.227-0.853-0.364-1.35-0.409-1.487
		c-0.116-0.329-0.232-0.536-0.354-0.634c-0.082-0.059-0.187-0.071-0.325-0.035c-0.101,0.026-0.174,0.076-0.218,0.152
		c-0.068,0.106-0.089,0.27-0.06,0.49c0.022,0.224,0.204,0.969,0.546,2.236c0.186,0.69,0.331,1.149,0.441,1.37
		c0.08,0.161,0.164,0.261,0.244,0.303c0.087,0.038,0.182,0.041,0.29,0.015c0.12-0.032,0.204-0.097,0.239-0.189
		c0.067-0.158,0.068-0.382,0.006-0.665L111.646,65.098z M166.192,176.09c0.035-0.042,0.078-0.074,0.117-0.113l1.295,0.933
		c0.313,0.226,0.629,0.412,0.942,0.591c-0.08,0.034-0.154,0.063-0.239,0.102c-0.479,0.206-0.835,0.332-1.064,0.379
		c-0.225,0.047-0.432,0.055-0.611,0.022c-0.178-0.036-0.338-0.108-0.468-0.219c-0.215-0.187-0.331-0.439-0.342-0.759
		C165.81,176.705,165.931,176.396,166.192,176.09z M171.503,180.294c0.078-0.309,0.178-0.608,0.295-0.902
		c0.004,0.03,0.019,0.055,0.02,0.088C171.825,179.759,171.72,180.027,171.503,180.294z M102.542,124.634
		c0.104,0.092,0.17,0.179,0.239,0.267l-4.932-3.55c0.028-0.018,0.06-0.041,0.089-0.053c0.119-0.046,0.307-0.063,0.551-0.051
		l0.245,0.014L102.542,124.634z M143.464,85.512l-0.021,0.362c-0.558,0.041-0.94,0.116-1.132,0.218
		c-0.197,0.103-0.354,0.277-0.475,0.53c-0.119,0.246-0.197,0.682-0.229,1.3l-0.562,10.896l-0.332-0.016l-8.291-11.365l-0.429,8.332
		c-0.037,0.752,0.109,1.27,0.438,1.55c0.33,0.281,0.719,0.434,1.164,0.457l0.31,0.016l-0.022,0.36l-4.646-0.24l0.018-0.36
		c0.723,0.031,1.232-0.09,1.531-0.364c0.296-0.275,0.463-0.761,0.502-1.456l0.475-9.246l-0.26-0.358
		c-0.258-0.362-0.49-0.602-0.699-0.725c-0.206-0.119-0.512-0.195-0.907-0.228l0.02-0.363l4.646,0.241l6.037,8.441l0.289-5.61
		c0.041-0.786-0.045-1.321-0.256-1.613c-0.289-0.391-0.799-0.596-1.527-0.621l0.018-0.36L143.464,85.512z M199.539,141.637
		l0.4,0.015l-0.516,12.464l-4.603,0.462l0.016-0.397c1.291-0.303,2.262-0.844,2.92-1.63c0.658-0.789,1.014-1.855,1.07-3.2
		l0.032-0.862c0.021-0.41-0.024-0.713-0.132-0.898c-0.105-0.192-0.245-0.327-0.416-0.398c-0.178-0.074-0.66-0.128-1.451-0.16
		l-4.06-0.168c-0.028,0.69,0.04,1.22,0.204,1.591c0.168,0.37,0.506,0.703,1.019,0.997c0.512,0.297,1.175,0.506,1.993,0.625
		l-0.015,0.395l-7.534-0.312l0.016-0.395c1.123-0.068,1.979-0.295,2.57-0.686c0.589-0.388,0.902-1.042,0.944-1.96l0.009-0.288
		l-5.862-0.241l-0.061,1.487c-0.046,1.094-0.01,1.841,0.097,2.245c0.188,0.688,0.498,1.229,0.934,1.621
		c0.441,0.392,1.174,0.713,2.206,0.961l-0.019,0.396l-4.262-0.175l0.5-12.062l0.393,0.014l-0.019,0.479
		c-0.021,0.467,0.067,0.837,0.253,1.111c0.125,0.201,0.314,0.336,0.555,0.418c0.149,0.04,0.547,0.077,1.196,0.102l9.474,0.392
		c0.723,0.031,1.166,0.01,1.341-0.062c0.243-0.09,0.417-0.225,0.523-0.403c0.157-0.249,0.245-0.58,0.264-0.998L199.539,141.637z
		 M134.146,197.034c1.546,0.169,2.771,0.722,3.684,1.653c0.91,0.935,1.306,1.978,1.182,3.12c-0.098,0.901-0.498,1.674-1.197,2.306
		c-0.702,0.632-1.998,1.241-3.888,1.835c-1.351,0.424-2.214,0.729-2.594,0.913c-0.521,0.257-0.905,0.53-1.156,0.823
		c-0.185,0.219-0.293,0.478-0.33,0.782c-0.05,0.477,0.13,0.924,0.538,1.342c0.409,0.414,1.003,0.663,1.775,0.749
		c1.002,0.108,1.967-0.142,2.902-0.741c0.936-0.607,1.574-1.472,1.923-2.595l0.466,0.05l-0.619,4.56l-0.346-0.039
		c-0.056-0.423-0.13-0.694-0.231-0.816c-0.104-0.118-0.253-0.189-0.449-0.214c-0.203-0.021-0.57,0.05-1.106,0.214
		c-0.534,0.165-0.986,0.269-1.348,0.31c-0.481,0.058-0.971,0.059-1.471,0.005c-1.366-0.146-2.459-0.653-3.275-1.522
		c-0.816-0.864-1.164-1.841-1.045-2.931c0.068-0.638,0.295-1.207,0.682-1.702c0.382-0.496,0.906-0.925,1.562-1.291
		c0.657-0.365,1.719-0.772,3.189-1.237c1.046-0.327,1.779-0.608,2.205-0.835c0.422-0.229,0.748-0.49,0.975-0.771
		c0.223-0.278,0.355-0.583,0.391-0.904c0.059-0.548-0.141-1.052-0.597-1.517c-0.46-0.464-1.113-0.745-1.956-0.836
		c-1.1-0.118-2.162,0.149-3.193,0.808c-1.032,0.661-1.793,1.699-2.28,3.112l-0.426-0.047l0.563-5.175l0.424,0.043
		c0.106,0.297,0.261,0.527,0.464,0.688c0.203,0.162,0.405,0.253,0.601,0.272c0.236,0.026,0.539-0.008,0.918-0.104
		c0.679-0.175,1.237-0.283,1.68-0.325C133.198,196.979,133.662,196.981,134.146,197.034z M72.538,156.434h-0.381v-3.558l0.385-0.002
		c0.011,0.534,0.096,0.895,0.255,1.083c0.157,0.188,0.378,0.28,0.657,0.282c0.189-0.001,0.395-0.026,0.619-0.08
		c0.223-0.053,0.644-0.198,1.253-0.435l5.92-2.222l-6.535-2.497c-0.804-0.304-1.281-0.457-1.437-0.456
		c-0.142-0.001-0.269,0.04-0.381,0.121c-0.113,0.081-0.191,0.191-0.238,0.333c-0.07,0.2-0.109,0.534-0.112,0.998h-0.382l0.005-6.616
		l0.378-0.002c0.001,0.426,0.058,0.747,0.171,0.966c0.119,0.216,0.309,0.406,0.573,0.581c0.271,0.165,0.804,0.402,1.602,0.716
		l1.459,0.558l5.249-2.151l-6.701-2.688c-0.836-0.33-1.379-0.492-1.638-0.494c-0.195,0.001-0.361,0.08-0.492,0.237
		c-0.134,0.159-0.206,0.474-0.218,0.953l-0.383-0.003l0.004-5.919l0.382,0.004c0.041,0.43,0.178,0.736,0.418,0.918
		c0.234,0.182,0.917,0.5,2.045,0.961l11.281,4.504l0.003,0.359l-8.952,3.739l8.945,3.39v0.394l-11.398,4.28
		c-0.978,0.38-1.506,0.589-1.586,0.629c-0.251,0.136-0.437,0.292-0.557,0.468C72.63,155.959,72.558,156.179,72.538,156.434z
		 M103.875,114.513l-0.112-0.16l2.566-1.784l0.113,0.161c-0.204,0.151-0.316,0.277-0.347,0.381
		c-0.032,0.106-0.014,0.199,0.042,0.285c0.078,0.109,0.312,0.294,0.703,0.553l3.158,2.07l-0.629-2.893l-0.679-0.458
		c-0.375-0.25-0.64-0.409-0.789-0.476c-0.154-0.063-0.293-0.087-0.422-0.073c-0.13,0.018-0.286,0.09-0.47,0.217l-0.111-0.163
		l2.87-1.989l0.111,0.161c-0.199,0.143-0.331,0.259-0.397,0.348c-0.049,0.062-0.074,0.132-0.074,0.203
		c-0.003,0.073,0.018,0.139,0.061,0.2c0.046,0.067,0.254,0.229,0.627,0.478l3.021,2.059l-0.794-3.211
		c-0.081-0.331-0.143-0.554-0.187-0.664c-0.043-0.113-0.094-0.211-0.149-0.293c-0.083-0.119-0.188-0.187-0.315-0.198
		c-0.131-0.009-0.312,0.062-0.547,0.215l-0.111-0.162l1.537-1.067l0.115,0.162c-0.105,0.084-0.178,0.18-0.221,0.284
		c-0.037,0.108-0.049,0.231-0.031,0.382c0.008,0.046,0.07,0.334,0.196,0.868l1.533,6.177l-0.173,0.119l-4.115-2.801l1.033,4.942
		l-0.161,0.109l-5.305-3.483c-0.537-0.349-0.882-0.546-1.03-0.593C104.244,114.371,104.067,114.402,103.875,114.513z
		 M164.345,123.159l0.41-7.723l-3.073,3.397c-0.278,0.307-0.398,0.58-0.353,0.812c0.041,0.236,0.156,0.435,0.339,0.599l0.128,0.112
		l-0.138,0.149l-1.894-1.718l0.13-0.145c0.296,0.264,0.56,0.389,0.778,0.375c0.225-0.014,0.467-0.163,0.72-0.445l3.415-3.774
		l0.016-0.243c0.014-0.244,0.002-0.428-0.05-0.55c-0.042-0.126-0.146-0.262-0.302-0.417l0.131-0.145l1.896,1.716l-0.36,5.7
		l2.074-2.296c0.292-0.321,0.441-0.58,0.451-0.775c0.014-0.269-0.132-0.533-0.432-0.796l0.132-0.146l1.766,1.597l-0.136,0.15
		c-0.25-0.179-0.437-0.279-0.557-0.304c-0.115-0.024-0.245-0.001-0.384,0.062c-0.135,0.063-0.319,0.222-0.548,0.474l-4.025,4.451
		L164.345,123.159z M169.342,129.167l-3.732-4.99l0.157-0.117l0.146,0.188c0.121,0.167,0.256,0.282,0.389,0.338
		c0.094,0.046,0.209,0.051,0.332,0.021c0.093-0.022,0.282-0.14,0.572-0.355l3.799-2.844c0.26-0.195,0.417-0.32,0.467-0.38
		c0.078-0.105,0.111-0.214,0.109-0.332c0-0.168-0.07-0.345-0.211-0.535l-0.145-0.187l0.157-0.118l3.616,4.832l-1.706,1.278
		l-0.122-0.161c0.355-0.396,0.569-0.735,0.64-1.022c0.07-0.283,0.043-0.594-0.074-0.929c-0.065-0.198-0.263-0.517-0.593-0.951
		l-0.445-0.6l-2.352,1.76l0.088,0.116c0.275,0.366,0.585,0.547,0.94,0.537c0.354-0.007,0.771-0.153,1.256-0.446l0.118,0.163
		l-3.021,2.26l-0.122-0.161c0.304-0.277,0.52-0.551,0.646-0.82c0.129-0.265,0.174-0.498,0.139-0.695
		c-0.035-0.199-0.156-0.438-0.365-0.713l-1.625,1.218c-0.317,0.237-0.501,0.397-0.551,0.478c-0.053,0.078-0.072,0.175-0.062,0.281
		c0.007,0.107,0.073,0.241,0.196,0.409l0.263,0.345c0.404,0.54,0.849,0.877,1.345,1.015c0.492,0.137,1.046,0.088,1.662-0.152
		l0.121,0.159L169.342,129.167z M103.099,185.459c-0.105-0.246-0.194-0.401-0.264-0.464c-0.071-0.062-0.144-0.088-0.221-0.08
		c-0.08,0.009-0.207,0.077-0.385,0.211l-0.12-0.105l1.543-1.844l0.162,0.143c-0.314,0.521-0.448,1.053-0.386,1.593
		c0.06,0.54,0.266,0.964,0.616,1.276c0.272,0.237,0.553,0.354,0.835,0.349c0.287-0.005,0.516-0.104,0.678-0.292
		c0.107-0.119,0.176-0.252,0.199-0.393c0.029-0.192,0.018-0.427-0.046-0.699c-0.047-0.2-0.2-0.607-0.453-1.23
		c-0.363-0.868-0.534-1.539-0.513-2.01c0.027-0.47,0.196-0.881,0.515-1.239c0.394-0.453,0.913-0.688,1.552-0.702
		c0.64-0.019,1.232,0.214,1.775,0.69c0.172,0.151,0.316,0.31,0.439,0.479c0.119,0.168,0.254,0.399,0.398,0.695
		c0.084,0.165,0.164,0.287,0.246,0.357c0.068,0.063,0.164,0.1,0.291,0.113c0.123,0.017,0.258-0.011,0.4-0.079l0.146,0.133
		l-1.797,2.045l-0.148-0.128c0.387-0.681,0.551-1.319,0.482-1.916c-0.07-0.595-0.297-1.062-0.683-1.402
		c-0.298-0.261-0.608-0.391-0.929-0.382c-0.321,0.006-0.574,0.116-0.765,0.332c-0.113,0.127-0.188,0.282-0.224,0.462
		c-0.038,0.178-0.035,0.383,0.009,0.61c0.042,0.234,0.165,0.591,0.366,1.071c0.277,0.678,0.451,1.192,0.516,1.554
		c0.071,0.362,0.067,0.696-0.002,1.009c-0.071,0.312-0.217,0.595-0.437,0.849c-0.383,0.432-0.862,0.658-1.45,0.685
		c-0.582,0.024-1.11-0.177-1.595-0.596c-0.178-0.156-0.329-0.326-0.459-0.515C103.298,185.895,103.198,185.702,103.099,185.459z
		 M100.357,183.098l-0.157,0.113l-1.854-2.516l0.157-0.12c0.155,0.201,0.289,0.312,0.391,0.339c0.107,0.025,0.198,0.01,0.281-0.053
		c0.111-0.081,0.289-0.318,0.54-0.716l1.98-3.215l-2.873,0.706l-0.442,0.698c-0.241,0.378-0.39,0.645-0.452,0.797
		c-0.061,0.158-0.078,0.297-0.062,0.425c0.02,0.128,0.098,0.282,0.229,0.463l-0.16,0.117l-2.068-2.815l0.16-0.117
		c0.146,0.196,0.268,0.326,0.357,0.393c0.064,0.044,0.133,0.067,0.205,0.065c0.075-0.001,0.141-0.023,0.198-0.066
		c0.065-0.049,0.22-0.261,0.464-0.638l1.973-3.083l-3.185,0.888c-0.335,0.088-0.555,0.157-0.666,0.203
		c-0.112,0.045-0.21,0.1-0.286,0.155c-0.115,0.089-0.181,0.197-0.186,0.324c-0.008,0.128,0.066,0.31,0.228,0.542l-0.161,0.114
		l-1.111-1.509l0.16-0.117c0.091,0.103,0.187,0.171,0.295,0.21c0.104,0.036,0.23,0.042,0.377,0.022
		c0.047-0.007,0.338-0.078,0.864-0.218l6.131-1.705l0.122,0.166l-2.685,4.193l4.914-1.168l0.113,0.159l-3.337,5.397
		c-0.333,0.543-0.522,0.892-0.564,1.041C100.206,182.727,100.241,182.901,100.357,183.098z M156.112,130.748l6.294-5.529
		l-1.995-2.268l-6.352,5.579c-4.413-4.302-10.165-7.247-16.602-8.146l0.156-5.146l2.404,0.071l-4.499-10.353l-5.116,10.063
		l2.438,0.073l-0.152,5.005c-6.896,0.138-13.238,2.644-18.236,6.747l-5.357-6.096l-2.269,1.994l5.39,6.134
		c-0.541,0.544-1.061,1.109-1.56,1.695l-7.144-5.144l0.958-1.08l-0.146-0.13l-0.11,0.124c-0.162,0.188-0.362,0.301-0.598,0.346
		c-0.234,0.044-0.508-0.07-0.817-0.347l-3.43-3.039l7.727,0.334l0.12-0.136l-4.495-3.981c-0.251-0.226-0.413-0.409-0.479-0.542
		c-0.064-0.139-0.086-0.267-0.062-0.388c0.021-0.118,0.118-0.304,0.292-0.558l-0.148-0.131l-1.58,1.782l0.146,0.133
		c0.261-0.306,0.525-0.453,0.791-0.446c0.199,0.008,0.457,0.157,0.783,0.443l2.319,2.058l-5.708-0.307l-1.444,1.629l-19.095-13.747
		l2.559-3.552c0.863-1.2,0.956-2.613,0.203-3.153c-0.75-0.541-2.059-0.006-2.924,1.192l-2.559,3.553l-9.069-6.527
		c-2.17-1.563-4.497-2.044-5.195-1.073c-0.697,0.97,0.494,3.024,2.665,4.585L73.287,109l-2.56,3.555
		c-0.862,1.197-0.956,2.61-0.203,3.151c0.75,0.54,2.062,0.005,2.925-1.193l2.558-3.554l32.09,23.104
		c-2.434,3.885-4.002,8.375-4.416,13.214l-8.053-0.385l-0.131,3.019l8.078,0.386c0.104,6.95,2.609,13.348,6.738,18.38l-5.76,5.062
		l1.994,2.271l5.798-5.094c4.755,4.729,11.107,7.87,18.219,8.522l-0.181,5.703l3.016,0.096l0.181-5.674
		c7.188-0.06,13.8-2.681,18.933-7.023l5.187,5.906l2.268-1.995l-5.249-5.974c0.537-0.558,1.048-1.14,1.541-1.737l9.75,7.021
		c-0.039,0.04-0.082,0.068-0.119,0.112c-0.471,0.547-0.689,1.144-0.663,1.781c0.022,0.64,0.269,1.154,0.729,1.547
		c0.357,0.308,0.775,0.47,1.242,0.487c0.266,0.008,0.602-0.053,0.991-0.167c-0.274,1.424-0.244,2.93,0.067,4.442
		c-0.168,0.136-0.334,0.212-0.491,0.223c-0.122,0.012-0.23-0.021-0.339-0.094c-0.06-0.046-0.197-0.193-0.405-0.443l-3.042-3.641
		c-0.23-0.276-0.358-0.461-0.386-0.551c-0.038-0.124-0.042-0.234,0-0.331c0.052-0.14,0.157-0.276,0.316-0.411l0.187-0.154
		l-0.126-0.15l-4.782,3.998l1.221,1.966l0.151-0.124c-0.276-0.606-0.354-1.157-0.246-1.657c0.114-0.495,0.429-0.964,0.944-1.396
		l0.33-0.278c0.16-0.132,0.293-0.207,0.396-0.219c0.107-0.018,0.205-0.001,0.283,0.044c0.081,0.049,0.254,0.223,0.51,0.527
		l1.302,1.557c-0.262,0.223-0.495,0.356-0.691,0.402c-0.195,0.047-0.43,0.014-0.703-0.1c-0.272-0.114-0.556-0.315-0.853-0.604
		l-0.158,0.13l2.422,2.896l0.156-0.129c-0.318-0.468-0.488-0.876-0.516-1.229c-0.025-0.352,0.138-0.675,0.486-0.966l0.111-0.093
		l1.879,2.249l-0.568,0.48c-0.42,0.35-0.727,0.565-0.917,0.644c-0.329,0.134-0.636,0.175-0.927,0.121
		c-0.289-0.055-0.637-0.25-1.051-0.583l-0.154,0.132l1.365,1.634l4.341-3.628c0.648,2.884,2.316,5.775,4.854,8.146
		c0.4-0.256,0.74-0.576,1.017-0.955c0.285-0.399,0.481-0.843,0.599-1.325c-2.633-2.68-3.877-6.111-3.4-9.106
		c0.172-0.125,0.332-0.267,0.479-0.436c0.412-0.49,0.604-1.023,0.565-1.609c-0.01-0.197-0.052-0.378-0.11-0.552
		c0.205-0.08,0.374-0.202,0.494-0.367c0.12-0.168,0.182-0.368,0.194-0.593c2.589-3.021,7.469-3.514,11.876-1.365
		c0.42-0.264,0.781-0.594,1.066-0.988c0.274-0.381,0.469-0.81,0.586-1.267c-5.465-2.963-11.633-2.757-15.338,0.491
		c-0.316-0.301-0.669-0.589-1.049-0.862l-11.371-8.188c2.279-3.767,3.753-8.084,4.164-12.726l6.915,0.106l0.05-3.021l-6.851-0.104
		C162.96,142.368,160.377,135.84,156.112,130.748z M97.938,121.298c0.119-0.046,0.307-0.063,0.551-0.051l0.245,0.014l3.808,3.373
		c0.104,0.092,0.17,0.179,0.239,0.267l-4.932-3.55C97.878,121.333,97.909,121.31,97.938,121.298z M165.822,177.025
		c-0.013-0.32,0.108-0.63,0.37-0.936c0.035-0.042,0.078-0.074,0.117-0.113l1.295,0.933c0.313,0.226,0.629,0.412,0.942,0.591
		c-0.08,0.034-0.154,0.063-0.239,0.102c-0.479,0.206-0.835,0.332-1.064,0.379c-0.225,0.047-0.432,0.055-0.611,0.022
		c-0.178-0.036-0.338-0.108-0.468-0.219C165.949,177.598,165.833,177.345,165.822,177.025z M171.817,179.479
		c0.008,0.279-0.098,0.548-0.314,0.814c0.078-0.309,0.178-0.608,0.295-0.902C171.802,179.422,171.816,179.446,171.817,179.479z
		 M109.116,134.798l2.471,1.779c-2.053,3.492-3.293,7.527-3.451,11.855l-0.225-0.008l-2.719-0.082
		c0.01-0.332,0.034-0.661,0.055-0.991C105.545,142.776,106.917,138.511,109.116,134.798z M157.844,149.385
		c0.002,0.184,0.001,0.368-0.002,0.554c-0.002,0.132,0.002,0.264-0.003,0.397c-0.021,0.698-0.078,1.386-0.156,2.066
		c-0.404,3.513-1.549,6.787-3.275,9.671l-10.558-7.602c0.288-0.588,0.534-1.2,0.72-1.84l4.943,0.23l-0.112,2.403l7.102-3.747
		l1.288-0.681l-1.265-0.825l-0.186-0.121l-6.491-4.236l-0.113,2.436l-4.832-0.224c-0.229-1.603-0.785-3.103-1.615-4.419l3.465-3.158
		l1.621,1.778l2.802-9.062l-9.28,1.951l1.641,1.802l-3.602,3.281c-1.096-0.725-2.321-1.273-3.645-1.582l0.133-2.864l0.09-1.923
		l0.533,0.025l1.869,0.087l-1.761-3.398l-2.638-5.092c0.944,0.039,1.873,0.133,2.785,0.276
		C148.938,127.387,157.745,137.403,157.844,149.385z M150.746,166.771c-0.585,0.587-1.198,1.142-1.839,1.666
		c-4.147,3.39-9.422,5.434-15.148,5.486c-0.325,0.003-0.65,0.004-0.98-0.006c-0.686-0.021-1.364-0.076-2.036-0.152
		c-6.149-0.697-11.576-3.674-15.446-8.048l9.306-2.027l-1.64-1.8l3.811-3.475c1.079,0.84,2.314,1.486,3.66,1.894l-0.243,5.234
		l-2.403-0.112l3.361,6.37l1.066,2.018l1.268-1.944l3.916-5.995l-2.438-0.113l0.236-5.073c1.354-0.178,2.635-0.591,3.797-1.207
		l3.336,3.66l-1.778,1.62l9.159,2.908l-0.945-4.329l3.101,2.232C151.507,165.988,151.132,166.385,150.746,166.771z M125.312,148.953
		c0.051-0.731,0.202-1.459,0.46-2.163c0.244-0.673,0.577-1.325,1.016-1.937c0.439-0.609,0.953-1.132,1.514-1.577
		c2.73-2.175,6.67-2.378,9.642-0.237c2.141,1.542,3.283,3.946,3.312,6.396c0.012,0.95-0.146,1.906-0.48,2.822
		c-0.245,0.673-0.577,1.326-1.017,1.936c-0.439,0.61-0.951,1.132-1.512,1.579c-2.73,2.175-6.67,2.376-9.643,0.236
		C126.271,154.328,125.123,151.625,125.312,148.953z M132.436,128.462l-3.132,4.873l2.438,0.114l-0.229,4.934
		c-1.379,0.271-2.674,0.785-3.827,1.511l-3.421-3.755l1.779-1.62l-9.034-2.79c4.124-3.811,9.56-6.199,15.521-6.436
		c0.57-0.022,1.143-0.031,1.721-0.014c0.074,0.002,0.147,0.008,0.221,0.012L132.436,128.462z M116.985,131.75l0.836,3.98
		l-2.758-1.985C115.666,133.044,116.308,132.378,116.985,131.75z M123.312,145.019c-0.244,0.563-0.447,1.147-0.596,1.756
		l-5.073-0.236l0.112-2.402l-8.371,4.334l-0.162,0.085l8.082,5.193l0.115-2.438l5.161,0.24c0.21,1.136,0.593,2.213,1.117,3.205
		l-3.952,3.602l-1.619-1.778l-2.884,9.078c-3.929-4.469-6.241-10.378-6.045-16.795c0.004-0.134,0.017-0.266,0.021-0.396
		c0.189-4.088,1.376-7.898,3.321-11.203L123.312,145.019z M161.79,149.444c-0.001,0.205,0.004,0.408-0.003,0.612l-3.187-0.097
		c0.006-0.188,0.004-0.375,0.004-0.563c0.013-6.007-2.084-11.55-5.607-15.907c-0.636-0.784-1.312-1.533-2.035-2.237
		c-3.641-3.541-8.354-5.99-13.627-6.824c-1.048-0.164-2.117-0.273-3.205-0.307c-0.525-0.016-1.046-0.011-1.563,0.006
		c-5.819,0.178-11.166,2.339-15.366,5.844c-0.775,0.646-1.512,1.338-2.203,2.071c-0.309,0.328-0.607,0.664-0.899,1.009l-2.494-1.797
		c0.433-0.528,0.883-1.041,1.352-1.535c0.695-0.73,1.425-1.427,2.193-2.082c4.758-4.049,10.864-6.54,17.515-6.729
		c0.559-0.016,1.118-0.021,1.684-0.003c1.046,0.031,2.075,0.124,3.088,0.267c6.214,0.865,11.754,3.739,15.979,7.927
		c0.716,0.71,1.393,1.458,2.029,2.24C159.47,136.283,161.852,142.601,161.79,149.444z M132.214,150.515
		c-0.46-0.329-0.699-0.849-0.694-1.374c0.004-0.334,0.104-0.671,0.314-0.964c0.538-0.75,1.584-0.918,2.335-0.381
		c0.479,0.347,0.718,0.896,0.689,1.445c-0.017,0.311-0.115,0.62-0.312,0.891C134.009,150.885,132.964,151.053,132.214,150.515z
		 M256.615,12.742v427.254H10.251V12.742H256.615 M259.39,9.968H7.477v432.803H259.39V9.968L259.39,9.968z"/>
</g>
</svg>
