<?xml version="1.0" encoding="utf-8"?>
<!-- Generator: Adobe Illustrator 16.0.0, SVG Export Plug-In . SVG Version: 6.00 Build 0)  -->
<!DOCTYPE svg PUBLIC "-//W3C//DTD SVG 1.1//EN" "http://www.w3.org/Graphics/SVG/1.1/DTD/svg11.dtd">
<svg version="1.1" xmlns="http://www.w3.org/2000/svg" xmlns:xlink="http://www.w3.org/1999/xlink" x="0px" y="0px"
	 width="232.489px" height="418.844px" viewBox="0 0 232.489 418.844" enable-background="new 0 0 232.489 418.844"
	 xml:space="preserve">
<g id="sketch">
</g>
<g id="icons">
	<path d="M112.085,411.197c0-5.9,1.935-32.502-3.622-38.085c-10.674-10.71-21.048,22.239-26.227,14.728
		c-0.715-1.777,3.121-6.537,4.34-8.593c-2.098,2.092-7.729,3.653-8.86,2.339c-2.003-5.094,4.141-6.512,6.218-9.471
		c-3.896-2.771-14.381-2.925-18.95-2.033c-6.166,1.203-15.023,13.99-20.657,7.846c1.622-3.849,4.84-6.441,7.188-9.834
		c-7.274-11.517-26.195,4.522-34.382-0.22c0.744-0.733,1.796-2.714,2.511-3.535c-6.56-2.655-18.099-7.849-6.469-14.087
		c5.299-2.845,17.123,0.084,23.673-0.396c-4.519-5.851-21.568-10.492-3.349-10.578c9.183-0.037,18.498,2.092,24.36-8.267
		c-4.287-13.516-13.216,2.537-19.876,2.854c0.727-3.392,2.619-6.326,3.341-9.718c-7.042-1.377-8.356,8.449-15.11,6.716
		c0.098-0.513,0.421-2.592,0.438-2.982c-5.506,4.755-16.512,0.465-11.235-7.67c2.878-4.424,13.531-4.505,17.565-8.263
		c-4.221-1.173-9.165,0.317-11.361-4.036c6.426-2.58,24.095-0.694,26.883-11.034c2.349-8.713-7.081-0.789-9.958-0.165
		c-5.314,1.157-9.24,1.789-12.554-3.789c8.873-11.841,26.835-3.792,36.229-13.252c-2.745-8.035-13.321-2.002-18.944-1.782
		c-11.279,0.443-10.729-6.837-0.09-5.212c-1.675-1.39-5.203-5.914-3.345-8.611c2.44-3.554,6.845,2.635,9.772,2.844
		c6.03,0.447,13.934-5.119,14.353-11.821c-0.379-0.771-1.378-2.418-1.832-3.079c-6.291,1.513-16.269,3.827-22.313-0.35
		c-0.318-7.848,8.896-7.777,14.205-9.021c-2.241-4.379-5.354-9.243-1.705-14.433c4.593,1.943,6.918,7.65,11.754,8.615
		c4.084,0.806,12.304-3.461,15.543-5.035c-3.656-1.571-10.977-0.922-14.605-2.937c-4.477-2.477-6.084-9.313-11.632-11.346
		c6.646-11.571,18.596,5.555,25.251-0.979c9.584-9.406-16.539-10.556-18.938-15.614c3.085-3.872,7.593-3.805,11.578-2.377
		c-2.873-1.612-4.454-4.744-3.409-8.683c8.138,2.457,13.533,5.443,19.643-4.92c-6.788-9.001-16.191,6.82-21.698-2.284
		c3.61-6.516,11.63-6.782,16.517-10.972c-2.562-2.05-5.668-2.468-9.055-3.256c1.477-2.559,24.178-12.492,5.787-15.791
		c-0.197-4.414,20.396-3.966,13.859-16.906c-10.09,4.303-5.389-8.333,1.152-11.181c-0.466-1.071-1.445-2.924-2.054-3.834
		c-6.605,1.143-6.694-6.428-4.21-11.022c16.535,3.33,9.376-14.006,0.856-19.447c3.305-11.599,12.274,1.84,15.778-5.788
		c1.187-2.593-11.075-25.527,2.958-15.186c1.9-3.914-0.509-7.762-2.435-10.72c2.879,1.605,4.642,0.275,6.785,0.082
		c-1.564-3.42-2.456-6.675-1.5-10.156c0.938,1.148,3.638,2.653,4.576,3.807c1.436-7.017-1.355-15.076-2.539-22.169
		c-1.215-7.307-0.662-14.305-0.963-21.702c7.051,1.074,7.735,13.273,7.262,19.787c2.315-2.197,4.686-5.606,7.854-3.625
		c-4.541,12.725-8.488,16.047-4.232,30.639c5.262,0.602,5.688-6.107,10-6.661c9.56-1.237-0.741,7.874-1.348,9.594
		c-5.793,16.229,6.026,2.533,10.969,3.437c-0.869,1.767-0.76,3.924-2.465,5.656c11.575-3.685-0.575,7.797-2.941,10.206
		c1.501,5.261,6.31,4.913,9.94,2.096c2.93,6.498-6.303,6.706-1.9,12.2c4.021,5.046,6.736-3.635,8.366-6.381
		c5.678,4.853,1.155,10.263-1.985,14.911c-3.967,5.859-5.979,5.898-7.833,14.124c8.759-1.154,9.205-9.499,15.301-13.828
		c2.963,4.264,0.678,8.585-2.676,11.752c1.343-0.061,2.984,0.447,4.321,0.382c-3.373,10.56-13.191,12.724-10.613,27.728
		c4.339-0.394,6.644-7.183,10.003-7.662c8.07-1.146-4.316,14.522-7.851,18.553c0.521,0.113,11.856-4.856,12.375-4.741
		c2.714,12.5-6.243,18.928-8.207,30.968c7.552-1.986,15.474-11.939,22.961-6.206c6.188,4.745-5.235,12.649-8.093,18.969
		c9.805-4.167,8.854,7.084,7.422,9.139c-6.47,9.311-1.709,5.618,7.582,11.323c3.562,4.835-23.06,21.524-18.039,29.89
		c5.32-2.717,23.475-21.053,24.459-9.776c0.949,3.692-3.381,6.913-4.6,8.754c3.363-0.048,5.241,1.654,7.211,4.182
		c-4.706,6.261-11.956-0.344-16.613,2.762c-5.808,3.87-6.47,9.07-10.275,17.497c6.564,0.786,14.886-9.546,21.18-11.134
		c1.094,4.331-1.096,8.64-3.322,11.751c2.883-0.434,11.151-4.457,11.762,1.229c0.315,2.951-8.129,7.266-9.744,8.014
		c8.392,1.45,20.396,3.484,6.016,11.245c-6.352,3.431-13.479-1.84-17.967,1.93c0.932,3.878,4.142,6.326,7.35,7.679
		c10.904-2.786,21.854-17.008,22.201-13.787c1.552,5.537-1.906,8.84-3.274,13.522c9.586-2.521,13.18,5.213,4.343,10.465
		c-5.439,3.224-13.779,4.232-19.775,6.21c4.079,3.992,9.293,3.145,15.272,3.776c6.165,0.656,12.371,5.108,2.833,8.249
		c4.392,4.328,13.686,6.474,16.091,11.825c-6.312,5.061-16.313-0.362-22.977,2.8c2.059,1.285,12.134,6.306,10.454,11.26
		c-1.473,4.331-18.071-3.883-27.112-7.043c-0.794,7.015,29.393,21.252,22.522,28.611c-13.874-6.164-22.392-9.027-37.702-6.883
		c2.866,5.348,7.749,3.123,10.518,6.266c4.114,4.658,4.157,9.515-3.458,7.215c0.463,3.912-1.062,4.752-2.156,7.762
		c-4.682-3.409-6.399-11.369-12.47-13.945c-3.643-1.547-11.1-1.45-15.3-0.787c3.755,2.908,4.74,8.984-1.717,7.614
		c-1.602-0.339-5.61-7.145-8.554-8.438c-7.22,11.142,0.585,32.044-5.165,42.593C125.841,411.227,112.085,411.197,112.085,411.197z"
		/>
</g>
</svg>
