<?xml version="1.0" encoding="utf-8"?>
<!-- Generator: Adobe Illustrator 16.0.0, SVG Export Plug-In . SVG Version: 6.00 Build 0)  -->
<!DOCTYPE svg PUBLIC "-//W3C//DTD SVG 1.1//EN" "http://www.w3.org/Graphics/SVG/1.1/DTD/svg11.dtd">
<svg version="1.1" xmlns="http://www.w3.org/2000/svg" xmlns:xlink="http://www.w3.org/1999/xlink" x="0px" y="0px"
	 width="413.979px" height="249.94px" viewBox="0 0 413.979 249.94" enable-background="new 0 0 413.979 249.94"
	 xml:space="preserve">
<g id="sketch">
</g>
<g id="icons">
	<path d="M308.388,235.963l9.508-12.301h-6.08l7.334-10.562h-3.618l10.389-17.645l10.056,17.645h-3.398l7.113,10.562h-5.93
		l9.414,12.301h-7.463l2.656,3.42h2.693l11.092-13.886h-11.99l15.098-19.529h-9.652l11.643-16.769h-5.744l16.494-28.014
		l15.965,28.014h-5.396l11.297,16.769h-9.416l14.949,19.529h-11.852l10.785,13.886h12.684c0,0-14.123-88.178-39.316-123.062
		c-18.777-13.343-9.883-12.786-31.01,0c-12.238,7.407-13.564,10.247-26.162-2.628c-12.598-12.877-60.078-42.916-65.893-41.948
		c-5.814,0.969-35.853,16.474-41.667,15.505c-5.813-0.969-55.73-72.806-62.515-73.774c-6.783-0.97-38.262,18.541-38.262,22.417
		c0,3.877-4.844,31.977-7.752,33.916c-2.906,1.937-67.83,59.109-71.705,71.706c-3.877,12.597-14.536,97.869-14.536,97.869h9.599
		l11.263-14.099h-8.903l11.211-14.503H24.2l8.645-12.452h-4.264l12.248-20.803l11.856,20.803h-4.009l8.39,12.452h-6.993
		l11.102,14.503h-8.801l9.43,12.142l6.289-8.137h-6.079l7.333-10.562h-3.618l10.39-17.644l10.055,17.644h-3.398l7.115,10.562h-5.932
		l7.727,10.094h1.879l9.347-11.699H91.694l14.123-18.271h-9.03l10.892-15.687h-5.373l15.43-26.206l14.938,26.206h-5.05
		l10.568,15.687h-8.811l13.424,17.537l7.842-10.145h-6.079l7.332-10.562h-3.617l10.39-17.645l10.056,17.645h-3.4l7.116,10.562
		h-5.932l9.415,12.301h-7.464l7.981,10.276h6.431l13.175-17.043h-9.03l10.89-15.686h-5.372l15.431-26.207l14.937,26.207h-5.05
		l10.568,15.686h-8.811l13.045,17.043h5.026l4.771-5.971h-6.029l7.592-9.82h-4.854l5.854-8.432h-2.889l8.295-14.086l8.027,14.086
		h-2.713l5.68,8.432h-4.736l7.519,9.82h-5.96l4.639,5.971h4.184l7.875-9.856h-7.623l9.598-12.416h-6.136l7.401-10.66h-3.65
		l10.486-17.809l10.148,17.809h-3.432l7.182,10.66h-5.986l9.504,12.416h-7.534l7.655,9.856h10.657l2.731-3.42H308.388z"/>
</g>
</svg>
