<?xml version="1.0" encoding="utf-8"?>
<!-- Generator: Adobe Illustrator 16.0.0, SVG Export Plug-In . SVG Version: 6.00 Build 0)  -->
<!DOCTYPE svg PUBLIC "-//W3C//DTD SVG 1.1//EN" "http://www.w3.org/Graphics/SVG/1.1/DTD/svg11.dtd">
<svg version="1.1" xmlns="http://www.w3.org/2000/svg" xmlns:xlink="http://www.w3.org/1999/xlink" x="0px" y="0px"
	 width="65.246px" height="449.978px" viewBox="0 0 65.246 449.978" enable-background="new 0 0 65.246 449.978"
	 xml:space="preserve">
<g id="sketch">
</g>
<g id="icons">
	<g>
		<g>
			<rect x="38.463" y="8.876" width="11.188" height="431.701"/>
			<path d="M43.747,434.381c0,0-9.43,1.658-9.43,8.081c3.523,0,19.479,0,19.479,0S52.448,434.381,43.747,434.381z"/>
			<polygon points="34.733,52.074 53.381,63.681 53.381,53.496 34.733,41.892 			"/>
			<polygon points="34.733,101.595 53.381,113.201 53.381,103.017 34.733,91.411 			"/>
			<polygon points="34.733,113.976 53.381,125.581 53.381,115.397 34.733,103.791 			"/>
			<polygon points="34.733,64.454 53.381,76.061 53.381,65.876 34.733,54.271 			"/>
			<polygon points="34.733,89.215 53.381,100.821 53.381,90.637 34.733,79.031 			"/>
			<polygon points="34.733,163.495 53.381,175.101 53.381,164.917 34.733,153.312 			"/>
			<polygon points="34.733,181.37 53.381,181.37 53.381,177.297 34.733,165.692 			"/>
			<polygon points="34.733,126.355 53.381,137.96 53.381,127.777 34.733,116.171 			"/>
			<polygon points="34.733,151.116 53.381,162.721 53.381,152.538 34.733,140.932 			"/>
			<polygon points="34.733,138.735 53.381,150.341 53.381,140.157 34.733,128.552 			"/>
			<polygon points="34.733,76.835 53.381,88.44 53.381,78.257 34.733,66.65 			"/>
			<polygon points="34.733,29.511 34.733,39.694 53.381,51.3 53.381,41.116 			"/>
			<polygon points="53.381,8.876 34.733,8.876 34.733,14.935 53.381,26.54 			"/>
			<polygon points="53.381,28.735 34.733,17.131 34.733,27.315 53.381,38.92 			"/>
		</g>
		<path d="M17.199,111.617L17.199,111.617c-8.75-0.003-9.437-17.231-9.438-22.514c-0.008-15.083,6.572-26.458,13.54-38.502
			c0.962-1.661,1.934-3.339,2.895-5.043c2.871-5.08,4.136-10.19,5.476-15.602c0.538-2.176,1.543-4.434,2.516-6.616
			c1.263-2.836,2.569-5.766,2.796-8.412c-0.141-2.452-0.424-3.4-0.582-3.749c-0.001-0.003-0.001-0.004-0.004-0.006l2.259-1.039
			c0.674,1.466,0.944,3.047,0.817,4.823c0.567,10.731-2.069,34.372-3.195,38.757c-1.383,5.392-2.054,11.151-2.703,16.72
			c-0.302,2.606-0.618,5.301-1.001,7.911c-0.191,1.317-0.335,3.155-0.501,5.282c-0.737,9.448-1.851,23.728-9.567,27.206
			C19.355,111.354,18.243,111.617,17.199,111.617z M34.968,23.207c-0.168,0.384-0.341,0.765-0.508,1.145
			c-0.971,2.181-1.889,4.24-2.376,6.202c-1.38,5.581-2.687,10.852-5.723,16.228c-0.967,1.712-1.94,3.397-2.905,5.067
			c-6.797,11.744-13.214,22.838-13.209,37.255c0.003,7.438,1.472,20.026,6.952,20.026l0,0c0.689,0,1.458-0.189,2.284-0.562
			c6.375-2.876,7.461-16.808,8.11-25.133c0.17-2.173,0.315-4.05,0.521-5.45c0.377-2.574,0.689-5.251,0.991-7.839
			c0.659-5.65,1.341-11.495,2.765-17.05C32.737,49.717,34.522,34.617,34.968,23.207z"/>
	</g>
</g>
</svg>
