<?xml version="1.0" encoding="utf-8"?>
<!-- Generator: Adobe Illustrator 16.0.0, SVG Export Plug-In . SVG Version: 6.00 Build 0)  -->
<!DOCTYPE svg PUBLIC "-//W3C//DTD SVG 1.1//EN" "http://www.w3.org/Graphics/SVG/1.1/DTD/svg11.dtd">
<svg version="1.1" xmlns="http://www.w3.org/2000/svg" xmlns:xlink="http://www.w3.org/1999/xlink" x="0px" y="0px"
	 width="385.48px" height="335.983px" viewBox="0 0 385.48 335.983" enable-background="new 0 0 385.48 335.983"
	 xml:space="preserve">
<g id="sketch">
</g>
<g id="icons">
	<path fill="#010101" d="M225.372,142.644c-48.092,0-87.072,38.978-87.072,87.063c0,48.093,38.98,87.067,87.072,87.067
		c48.08,0,87.064-38.975,87.064-87.067C312.437,181.622,273.452,142.644,225.372,142.644z M225.195,313.401
		c-46.127,0-83.522-37.396-83.522-83.521c0-46.129,37.396-83.528,83.522-83.528c46.128,0,83.524,37.398,83.524,83.528
		C308.72,276.005,271.323,313.401,225.195,313.401z M225.191,161.189c-37.931,0-68.69,30.754-68.69,68.694
		c0,37.935,30.76,68.683,68.69,68.683c37.939,0,68.697-30.748,68.697-68.683C293.889,191.943,263.131,161.189,225.191,161.189z
		 M225.191,284.15c-29.968,0-54.272-24.294-54.272-54.267c0-29.979,24.305-54.278,54.272-54.278c29.979,0,54.28,24.299,54.28,54.278
		C279.472,259.856,255.17,284.15,225.191,284.15z M373.696,138.548c-2.706-19.122-9.172-48.986-14.228-51.354
		c-5.067-2.362-36.869-6.157-41.51-10.799c-4.64-4.637-12.821-14.844-15.184-19.568c-2.361-4.724-6.078-6.583-6.078-6.583
		s-5.901-19.396-12.646-21.596c-6.753-2.183-13.831-1.009-13.831-1.009s-2.199-2.196-3.723-3.711c-1.509-1.52-4.215-1.52-4.215-1.52
		s4.053-13.158-3.372-13.158c-7.427,0-7.427,7.59-7.427,7.59s-7.586,1.015-7.586,2.026c0,1.009-4.221,2.701-6.749,2.701
		c-2.537,0-0.514-2.534-3.21-2.534c-2.693,0,0.17,1.687-4.383,1.687c-4.558,0-5.398-3.032-7.594-3.032s-7.762-0.849-7.762-0.849
		l-0.111-7.422c0,0-6.641-1.47-8.667,0.563c-2.019,2.028-3.031,11.915-3.031,11.915s-4.162,1.131-4.162,2.933
		c0,1.802-2.475,4.274-2.475,2.586c0-1.69-13.555-0.949-17.207,2.695c-3.657,3.661-7.648,9.003-8.547,12.263
		c-0.903,3.264-1.016,5.062-1.016,5.062s-6.413,3.822-7.762,7.649c-1.351,3.825-3.147,8.435-7.196,9.783
		c-4.05,1.349-7.196,5.286-7.196,5.286s-1.579-8.322-2.142-11.474c-0.561-3.147,1.464-5.062-12.149-6.743
		c-13.61-1.691-27.667,0-36.332,2.136c-8.659,2.134-17.095,4.943-17.767,8.209c0,0-10.911,0.227-11.59,4.385
		c-0.673,4.162-1.01,10.799-1.01,10.799s-4.161,2.363-14.285,3.261c-10.12,0.9-19.235,4.048-19.235,4.048s-0.558-2.702-2.077-2.082
		c-1.52,0.619-2.646,4.789-2.646,4.789s-12.707,11.696-12.707,27.213c0,15.523-0.536,47.246-0.536,47.246s-4.136,2.61,0,4.216
		l-0.082,4.046c0,0-3.713,3.801,0,4.56l0.25,4.053c0,0-3.286,2.86-0.168,4.127l-0.082,4.307c0,0-4.221,2.862,0.25,4.632
		l-0.084,4.052c0,0-3.879,2.704,0.084,4.385l0.339,3.973c0,0-4.248,1.123-0.423,3.593l0.168,4.556c0,0-3.993,3.372,0,4.722
		l0.114,3.769c0,0-3.431,2.64-0.114,4.498c0,0-1.514,44.653,1.185,52.084c2.7,7.417,9.278,23.955,22.435,23.955
		c13.165,0,30.766,1.517,35.378-2.194c4.608-3.714,15.859-4.84,23.844-4.84v-1.425v-2.463V163.397c0-0.789,0.639-1.431,1.432-1.431
		c0.79,0,1.427,0.642,1.427,1.431v127.149h0.034v3.916c12.439,0.181,48.625,1.209,48.625,1.209s25.08,26.203,54.774,30.929
		c29.691,4.731,56.686-3.029,74.913-12.822c18.218-9.783,20.912-16.191,20.912-16.191s44.662,1.346,55.014-5.4
		c10.341-6.749,17.989-11.699,19.339-36.894C375.267,230.101,376.393,157.66,373.696,138.548z M297.656,53.281
		c0,0,6.075,9.902-6.745,27.226C290.911,80.506,300.216,60.958,297.656,53.281z M169.213,49.016c0,0-5.403,8.538-0.901,28.116
		C168.312,77.132,162.688,55.532,169.213,49.016z M142.71,57.098c0,0-31.271,16.192-63.89,6.291
		C78.82,63.389,109.864,70.367,142.71,57.098z M48.856,96.73c2.277-1.602,1.69,0.845,2.955-0.424
		c1.262-1.269,0.168-2.019,1.52-3.378c1.348-1.346,1.223,1.99,2.529,0.679c1.308-1.312,0.674-2.825,2.32-2.825
		c1.647,0,1.303,1.307,2.908,0.549c1.604-0.762,0.847-0.844,3.546-1.433c2.7-0.59,0.503,1.259,3.203,1.259
		c2.702,0,0-1.259,2.702-1.259c2.699,0,0.925,1.603,3.117,2.282c2.192,0.671,0.97-1.905,2.239-0.639
		c1.263,1.269,1.18,1.182,2.315,2.318c1.14,1.14,1.393-1.392,2.447-0.334c1.054,1.05,0,1.935,0,1.935l1.016,2.021l-3.798,1.022
		c0,0-1.347-4.389-11.809-4.389c-10.465,0-15.355,7.583-15.355,7.583l-3.164-2.396C47.549,99.304,46.579,98.333,48.856,96.73z
		 M76.022,99.514c0,0-4.052,8.435-21.934,2.871C54.089,102.385,68.851,105.84,76.022,99.514z M18.492,139.55
		c0.038-14.234,2.088-6.969,40.489-6.969c38.8,0,40.491-38.129,40.491-38.129c0.68,0.679,1.222,1.535,1.627,2.525
		c-0.188,2.822-3.3,37.943-41.301,37.943c-36.33,0-40.768-6.249-41.251,4.196C18.518,139.281,18.501,139.426,18.492,139.55
		c0,0.15-0.001,0.298-0.001,0.452C18.491,140.002,18.472,139.831,18.492,139.55z M18.491,142.346c0,0-0.02-0.171,0.001-0.45
		C18.492,142.044,18.491,142.192,18.491,142.346z M119.689,197.211c-0.049,0.4-0.102,0.793-0.149,1.196
		C119.54,198.407,119.59,197.989,119.689,197.211c1.63-13.223,3.686-24.987,5.99-35.424c5.832-28.155,16.004-63.787,31.317-73.213
		c0,0-19.138,18.084-31.317,73.213C122.155,178.81,120.217,193.097,119.689,197.211z M224.854,321.838
		c-51.156,0-92.63-41.472-92.63-92.632c0-51.162,41.474-92.638,92.63-92.638c51.172,0,92.635,41.477,92.635,92.638
		C317.489,280.366,276.026,321.838,224.854,321.838z M318.056,163.099c-13.364-21.724-42.653-57.995-89.656-58.922
		c-51.334-1.02-76.225,32.01-85.116,47.664c-1.281,1.281-2.596,2.596-3.971,3.97c0,0,21.888-57.017,89.087-55.692
		c67.203,1.337,98.204,74.922,98.204,74.922S323.634,170.094,318.056,163.099z M304.954,77.157
		c-0.107-0.086-0.215-0.172-0.321-0.254C304.633,76.902,304.741,76.971,304.954,77.157c18.061,14.53,31.73,93.557,31.73,93.557
		C319.516,92.8,307.077,79.02,304.954,77.157z"/>
</g>
</svg>
