<?xml version="1.0" encoding="utf-8"?>
<!-- Generator: Adobe Illustrator 16.0.0, SVG Export Plug-In . SVG Version: 6.00 Build 0)  -->
<!DOCTYPE svg PUBLIC "-//W3C//DTD SVG 1.1//EN" "http://www.w3.org/Graphics/SVG/1.1/DTD/svg11.dtd">
<svg version="1.1" xmlns="http://www.w3.org/2000/svg" xmlns:xlink="http://www.w3.org/1999/xlink" x="0px" y="0px"
	 width="376.48px" height="209.989px" viewBox="0 0 376.48 209.989" enable-background="new 0 0 376.48 209.989"
	 xml:space="preserve">
<g id="sketch">
</g>
<g id="icons">
	<path fill-rule="evenodd" clip-rule="evenodd" d="M353.727,56.977l-0.183-0.062h-0.001c-10.826-20.988-24.376-35.637-42.385-45.885
		l-0.121-0.069l-0.133-0.039c-1.402-0.409-2.803-0.608-4.283-0.608c-1.693,0-3.441,0.254-5.669,0.825l-1.805,0.745
		c-9.334,3.916-18.986,7.966-26.203,14.977c-3.756,3.02-3.767,7.476-1.83,10.365c1.176,2.274,2.919,3.428,5.183,3.428
		c4.093,0,9.112-3.876,14.427-7.981c2.811-2.171,5.717-4.416,8.318-5.9c2.484-1.028,4.964-1.048,7.451-0.059
		c9.878,9.844,18.7,22.236,26.222,36.833l0.053,0.101c-16.732,5.423-36.543,11.689-57.896,17.278
		c-6.9,1.806-13.926,3.84-20.72,5.808c-21.771,6.303-44.281,12.822-68.163,13.623c-23.924-0.801-46.438-7.32-68.209-13.624
		c-6.792-1.967-13.816-4.001-20.717-5.807c-22.592-5.913-43.453-12.584-60.77-18.211c6.622-11.542,14.119-21.523,22.356-29.734
		c2.487-0.991,4.968-0.97,7.453,0.06c2.6,1.484,5.504,3.727,8.312,5.898c5.315,4.106,10.334,7.984,14.429,7.984h0.001
		c2.263-0.001,4.007-1.154,5.183-3.429c1.936-2.888,1.924-7.344-1.829-10.363c-7.216-7.01-16.865-11.06-26.197-14.976l-1.646-0.691
		l-0.165-0.056c-2.226-0.57-3.974-0.825-5.669-0.825c-1.479,0-2.881,0.199-4.283,0.608l-0.134,0.039l-0.121,0.069
		c-17.073,9.716-30.14,23.392-40.68,42.677c-5.552,5.46-7.118,16.776-4.642,33.784c2.576,17.693,8.794,37.723,13.334,52.348
		c1.658,5.342,3.09,9.954,3.919,13.134l0.039,0.106c6.931,14.5,33.53,32.74,55.807,38.269c7.735,1.918,15.734,2.892,23.776,2.892
		c11.521,0,23.12-1.985,34.474-5.9l0.058-0.023c11.527-5.375,18.703-19.723,25.033-32.382c5.904-11.806,11.003-22.001,17.986-22.001
		c0.138,0,0.276,0.004,0.416,0.012l0.059,0.003l0.058-0.008c1.471-0.208,3.067-0.211,4.617,0.005l0.061,0.008l0.062-0.004
		c7.239-0.483,12.433,9.91,18.472,21.987c6.331,12.658,13.506,27.006,25.031,32.38l0.057,0.023c11.354,3.916,22.954,5.9,34.477,5.9
		c8.041,0,16.042-0.974,23.778-2.892c22.276-5.529,48.875-23.77,55.805-38.269l0.04-0.106c0.828-3.183,2.261-7.799,3.92-13.145
		c4.54-14.625,10.757-34.653,13.333-52.344C366.364,72.502,363.153,60.129,353.727,56.977z"/>
</g>
</svg>
