<?xml version="1.0" encoding="utf-8"?>
<!-- Generator: Adobe Illustrator 16.0.0, SVG Export Plug-In . SVG Version: 6.00 Build 0)  -->
<!DOCTYPE svg PUBLIC "-//W3C//DTD SVG 1.1//EN" "http://www.w3.org/Graphics/SVG/1.1/DTD/svg11.dtd">
<svg version="1.1" xmlns="http://www.w3.org/2000/svg" xmlns:xlink="http://www.w3.org/1999/xlink" x="0px" y="0px"
	 width="104.995px" height="425.581px" viewBox="0 0 104.995 425.581" enable-background="new 0 0 104.995 425.581"
	 xml:space="preserve">
<g id="sketch">
</g>
<g id="icons">
	<g>
		<path d="M50.886,84.363l9.718,0.014c10.333,0.015,20.069,4.08,27.414,11.445c2.22,2.227,4.133,4.674,5.727,7.286
			c13.298-53.736-18.165-87.557-33.739-94c-1.513-0.749-2.984-1.13-4.385-1.124h-0.02c-0.043-0.004-0.087,0-0.127,0
			c-0.046,0-0.089-0.004-0.132,0h-0.02c-1.397-0.004-2.872,0.375-4.384,1.124c-15.629,6.466-47.26,40.5-33.6,94.565
			C24.084,92.139,36.595,84.363,50.886,84.363z"/>
		<path d="M60.149,402.786l-3.086-0.004v15.071l3.064,0.004c0.018,0,0.036,0,0.054,0c2.328,0,4.604-0.229,6.814-0.651v-15.543
			c-2.172,0.735-4.467,1.123-6.814,1.123H60.149z"/>
		<path d="M92.79,106.713C86.644,95.195,74.505,87.299,60.6,87.279l-9.663-0.015c-0.016,0-0.034,0-0.051,0
			c-14.168,0-26.512,8.181-32.56,20.052c-2.517,4.941-3.95,10.517-3.959,16.415l-0.368,257.541
			c-0.022,16.663,11.271,30.818,26.588,35.18v-2.981v-11.156v-2.005c-1.897-1.005-3.658-2.301-5.225-3.872
			c-4.064-4.076-6.299-9.454-6.291-15.144l0.356-250.367l0.011-7.174c0.007-5.684,2.254-11.052,6.323-15.115
			c4.07-4.063,9.44-6.302,15.124-6.302v1.736c-5.063,0-9.853,1.996-13.485,5.623s-5.637,8.413-5.644,13.478l-0.016,10.68
			c0.001,0,0.001,0.001,0.001,0.001c5.1,8.347,12.462,22.536,13.947,36.898c1.692,16.35,1.512,67.215,0.248,96.178
			c-0.889,8.009-1.815,16.014-2.701,23.921c-0.879,4.899-1.647,13.108-2.254,21.23c-1.188,12.166-2.094,23.859-2.392,34.671
			c-0.416,8.709-0.479,17.124-0.025,25.127c0,5.888,1.253,16.531,3.702,26.102c2.542,1.231,5.337,1.887,8.223,1.892l9.662,0.014
			c3.018,0,5.927-0.706,8.553-2.033c2.429-9.537,3.672-20.11,3.672-25.974c0.454-7.976,0.389-16.36-0.022-25.037
			c-0.107-3.979-0.306-8.088-0.563-12.282l0.007-0.001c0,0-0.007-0.076-0.02-0.21c-0.47-7.604-1.148-15.525-1.955-23.661
			c-3.484-47.286-8.833-150.438,8.477-175.181c0.49-0.703,0.937-1.38,1.362-2.043l0.014-10.223
			c0.007-5.068-1.987-9.864-5.614-13.503s-8.417-5.646-13.487-5.653l-9.662-0.013l-0.021-1.736h0.024l9.662,0.013
			c5.689,0.009,11.061,2.258,15.125,6.335c4.066,4.077,6.3,9.455,6.292,15.145l-0.009,6.464l-0.358,251.077
			c-0.009,5.685-2.254,11.052-6.324,15.115c-1.49,1.489-3.157,2.729-4.948,3.708v2.024v11.191v2.987
			c15.154-4.43,26.319-18.465,26.343-35.004l0.367-257.543C97.075,117.668,95.522,111.835,92.79,106.713z"/>
		<path d="M43.945,401.73v15.505c2.118,0.389,4.295,0.606,6.521,0.609l3.412,0.004v-15.07l-3.391-0.005
			C48.236,402.771,46.037,402.411,43.945,401.73z"/>
	</g>
</g>
</svg>
