<?xml version="1.0" encoding="utf-8"?>
<!-- Generator: Adobe Illustrator 16.0.0, SVG Export Plug-In . SVG Version: 6.00 Build 0)  -->
<!DOCTYPE svg PUBLIC "-//W3C//DTD SVG 1.1//EN" "http://www.w3.org/Graphics/SVG/1.1/DTD/svg11.dtd">
<svg version="1.1" xmlns="http://www.w3.org/2000/svg" xmlns:xlink="http://www.w3.org/1999/xlink" x="0px" y="0px"
	 width="329.984px" height="274.487px" viewBox="0 0 329.984 274.487" enable-background="new 0 0 329.984 274.487"
	 xml:space="preserve">
<g id="sketch">
</g>
<g id="icons">
	<path d="M313.38,73.012c-15.305-30-56.611-62.519-99.216-62.519c-19.608,0-39.489,6.885-57.243,24.075
		c-5.14,4.694-137.684,147.519-137.684,147.519s-42.021,60.795,27.716,81.358c6.968,2.055,14.883,2.994,23.485,2.994
		c77.51,0,211.738-76.125,228.638-98.657C317.851,142.748,335.731,116.821,313.38,73.012z M155.085,43.957l11.554,13.138
		L41.9,191.002l-11.944-12.183L155.085,43.957z M294.871,120.296c-2.632,9.871-9.341,19.349-17.847,30.695
		c-0.554,0.614-6.307,6.73-26.898,19.668c-16.412,10.311-36.535,21.28-56.662,30.888c-49.499,23.626-94.34,37.176-123.025,37.176
		c-6.19,0-11.455-0.626-15.646-1.863c-10.833-3.194-18.023-7.722-19.726-12.421c-2.477-6.836,2.432-19.031,6.185-25.33
		C92.359,144.042,168.757,61.92,175.902,54.768l0.007-0.006l0.292-0.282c11.307-10.949,23.726-16.271,37.963-16.271
		c14.037,0,29.775,5.416,44.317,15.251c13.203,8.929,24.496,20.947,30.211,32.148C297.774,103.409,296.568,113.931,294.871,120.296z
		"/>
</g>
</svg>
