<?xml version="1.0" encoding="utf-8"?>
<!-- Generator: Adobe Illustrator 16.0.0, SVG Export Plug-In . SVG Version: 6.00 Build 0)  -->
<!DOCTYPE svg PUBLIC "-//W3C//DTD SVG 1.1//EN" "http://www.w3.org/Graphics/SVG/1.1/DTD/svg11.dtd">
<svg version="1.1" xmlns="http://www.w3.org/2000/svg" xmlns:xlink="http://www.w3.org/1999/xlink" x="0px" y="0px"
	 width="243.871px" height="442.771px" viewBox="0 0 243.871 442.771" enable-background="new 0 0 243.871 442.771"
	 xml:space="preserve">
<g id="sketch">
</g>
<g id="icons">
	<g>
		<path d="M91.772,433.868c-11.324,0-20.842-8.848-21.669-20.144l-0.028-0.38h-0.038V148.8l-0.509,0.125
			c-3.711,0.917-7.526,1.382-11.339,1.382c-26.003,0-47.157-21.154-47.157-47.157c0-19.674,12.391-37.449,30.839-44.255l0.07-0.025
			c1.466-0.538,2.96-1.004,4.441-1.385c9.971-3.246,34.812-12.119,50.623-24.552c14.546-12.816,33.219-19.867,52.595-19.867
			c42.201,0,77.006,32.87,79.428,74.911H70.174c0.183-3.181,0.563-6.39,1.132-9.544l0.054-0.299l-0.27-0.139
			c-4.039-2.082-8.38-3.138-12.9-3.138c-15.602,0-28.294,12.691-28.294,28.292c0,15.602,12.692,28.294,28.294,28.294
			c4.018,0,7.922-0.846,11.606-2.513l0.241-0.109v-3.938h159.128V413.46l-0.066,0.265c-0.827,11.296-10.345,20.144-21.669,20.144
			H91.772z M70.037,120.782v-4.1h159.128v4.1H70.037z M70.037,114.222v-4.101h159.128v4.101H70.037z M70.037,107.66v-4.101h159.128
			v4.101H70.037z M70.037,101.1v-4.101h159.128v4.101H70.037z M70.037,94.537V92.63c0-0.734,0.015-1.465,0.035-2.193h159.059
			c0.021,0.729,0.034,1.459,0.034,2.193v1.907H70.037z"/>
		<path d="M149.601,13.476c41.839,0,76.371,32.473,78.992,74.091H70.608c0.191-3.021,0.561-6.066,1.102-9.062l0.107-0.597
			l-0.539-0.278c-4.099-2.111-8.502-3.183-13.089-3.183c-15.827,0-28.704,12.876-28.704,28.702
			c0,15.827,12.877,28.704,28.704,28.704c4.076,0,8.038-0.858,11.775-2.55l0.482-0.218v-0.529v-3.263h158.308v10.004v276.836v0.801
			h-0.01l-0.056,0.761c-0.812,11.082-10.149,19.763-21.26,19.763H91.772c-11.11,0-20.449-8.681-21.26-19.763l-0.056-0.761h-0.01
			v-0.801V149.323v-1.047l-1.017,0.251c-3.68,0.908-7.462,1.369-11.241,1.369c-25.776,0-46.747-20.971-46.747-46.747
			c0-19.468,12.239-37.062,30.501-43.845h0.002l0.137-0.051c1.454-0.533,2.935-0.995,4.402-1.373l0.025-0.006l0.024-0.008
			c9.967-3.245,34.862-12.14,50.76-24.642C111.748,20.489,130.324,13.476,149.601,13.476 M228.731,90.847
			c0.016,0.639,0.023,1.227,0.023,1.783v1.497H70.447V92.63c0-0.62,0.011-1.225,0.024-1.783H228.731 M228.755,97.409v3.28H70.447
			v-3.28H228.755 M228.755,103.97v3.28H70.447v-3.28H228.755 M228.755,110.531v3.28H70.447v-3.28H228.755 M228.755,117.093v3.279
			H70.447v-3.279H228.755 M149.601,12.655c-20.259,0-38.756,7.537-52.849,19.955C81.013,44.986,56.332,53.814,46.28,57.087
			c-1.525,0.393-3.02,0.861-4.48,1.397c-0.002,0-0.007,0.002-0.007,0.002c-18.192,6.681-31.171,24.156-31.171,44.663
			c0,26.271,21.297,47.567,47.567,47.567c3.944,0,7.772-0.488,11.438-1.394v262.811v1.621h0.067
			c0.837,11.43,10.444,20.523,22.078,20.523H207.43c11.634,0,21.241-9.094,22.078-20.523h0.067v-1.621V135.298v-10.824H69.627v4.083
			c-3.493,1.581-7.361,2.477-11.438,2.477c-15.376,0-27.884-12.509-27.884-27.884c0-15.373,12.508-27.882,27.884-27.882
			c4.579,0,8.896,1.125,12.713,3.092c-0.591,3.276-0.985,6.624-1.162,10.027h159.722C227.258,46.192,192.348,12.655,149.601,12.655
			L149.601,12.655z M229.528,90.026H69.674c-0.026,0.865-0.047,1.731-0.047,2.604v2.317h159.948V92.63
			C229.575,91.758,229.557,90.892,229.528,90.026L229.528,90.026z M229.575,96.589H69.627v4.921h159.948V96.589L229.575,96.589z
			 M229.575,103.149H69.627v4.921h159.948V103.149L229.575,103.149z M229.575,109.711H69.627v4.921h159.948V109.711L229.575,109.711
			z M229.575,116.272H69.627v4.92h159.948V116.272L229.575,116.272z"/>
	</g>
</g>
</svg>
