<?xml version="1.0" encoding="utf-8"?>
<!-- Generator: Adobe Illustrator 16.0.0, SVG Export Plug-In . SVG Version: 6.00 Build 0)  -->
<!DOCTYPE svg PUBLIC "-//W3C//DTD SVG 1.1//EN" "http://www.w3.org/Graphics/SVG/1.1/DTD/svg11.dtd">
<svg version="1.1" xmlns="http://www.w3.org/2000/svg" xmlns:xlink="http://www.w3.org/1999/xlink" x="0px" y="0px"
	 width="283.485px" height="365.386px" viewBox="0 0 283.485 365.386" enable-background="new 0 0 283.485 365.386"
	 xml:space="preserve">
<g id="sketch">
</g>
<g id="icons">
	<path fill="#010101" d="M274.956,98.16c-0.07-2.271-1.873-2.67-2.812-2.91c-0.811-0.205-3.77-0.068-4.576-0.028l0.008-1.506
		c0,0,4.738,0.017,5.113,0.019c0.412,0.003,1.062-0.669,1.064-1.119c0-0.57,0.255-70.73,0.255-70.73
		c0.023-6.634-5.295-11.99-11.929-12.014c0,0-200.055-0.721-203.047-0.73c-0.717-0.002-1.652,0.275-2.587,1.214
		c-7.454,7.468-40.086,40.585-40.548,41.009c-1.119,1.03-0.916,2.535-0.919,2.96c-0.002,0.714-0.219,61.18-0.224,62.438
		c-0.003,0.563,0.285,0.947,0.902,0.949l6.402,0.021l-0.059,16.483c0,0-4.513-0.017-6.351-0.023c-0.63,0-0.959,0.372-0.962,0.969
		c-0.007,1.685-0.752,208.565-0.752,208.565c-0.023,6.634,5.308,11.99,11.943,12.014l80.47,0.29c0.9,0.002,0.127-4.346,3.888-4.334
		c1.167,0.005,19.3,0.071,22.125,0.08c0.278,0,0.65,4.096,1.126,4.096c4.124,0.017,14.881,0.054,18.204,0.065
		c0.202,0,0.391-4.09,0.535-4.09c2.782,0.012,20.738,0.075,21.73,0.077c3.542,0.015,4.351,4.237,4.567,4.364l82.306,0.297
		c6.636,0.023,11.991-5.295,12.016-11.928c0,0,0.629-174.862,0.638-177.304c0-0.438-0.522-0.921-1.022-0.924
		c-1.56-0.005-5.148-0.017-5.148-0.017l0.137-38.021c0.627,0.003,3.457,0.013,5.123,0.02c1.88,0.007,2.358-1.951,2.365-4.069
		C274.946,122.227,275.024,100.434,274.956,98.16z M53.852,95.127l-22.726-0.082l0.179-49.584l22.726,0.082L53.852,95.127z
		 M81.672,74.346l-21.178-0.078l0.193-53.715l21.178,0.075L81.672,74.346z M108.367,74.44L87.19,74.364l0.193-53.717l21.177,0.077
		L108.367,74.44z M135.629,74.534l-21.177-0.063l0.205-55.749l21.18,0.095L135.629,74.534z M162.898,74.643l-21.18-0.094
		l0.207-55.719l21.178,0.066L162.898,74.643z M191.011,74.739l-21.176-0.078l0.191-53.717l21.177,0.077L191.011,74.739z
		 M217.706,74.834l-21.177-0.076l0.193-53.717l21.177,0.075L217.706,74.834z M242.566,74.711l-19.027-0.068l0.188-52.539
		l19.028,0.068L242.566,74.711z M259.041,74.487l-13.35-0.05l0.188-52.539l13.35,0.05L259.041,74.487z"/>
</g>
</svg>
